%TF.GenerationSoftware,KiCad,Pcbnew,(6.0.5)*%
%TF.CreationDate,2023-03-15T03:11:22-03:00*%
%TF.ProjectId,Weslie,5765736c-6965-42e6-9b69-6361645f7063,rev?*%
%TF.SameCoordinates,Original*%
%TF.FileFunction,Soldermask,Bot*%
%TF.FilePolarity,Negative*%
%FSLAX46Y46*%
G04 Gerber Fmt 4.6, Leading zero omitted, Abs format (unit mm)*
G04 Created by KiCad (PCBNEW (6.0.5)) date 2023-03-15 03:11:22*
%MOMM*%
%LPD*%
G01*
G04 APERTURE LIST*
G04 Aperture macros list*
%AMRoundRect*
0 Rectangle with rounded corners*
0 $1 Rounding radius*
0 $2 $3 $4 $5 $6 $7 $8 $9 X,Y pos of 4 corners*
0 Add a 4 corners polygon primitive as box body*
4,1,4,$2,$3,$4,$5,$6,$7,$8,$9,$2,$3,0*
0 Add four circle primitives for the rounded corners*
1,1,$1+$1,$2,$3*
1,1,$1+$1,$4,$5*
1,1,$1+$1,$6,$7*
1,1,$1+$1,$8,$9*
0 Add four rect primitives between the rounded corners*
20,1,$1+$1,$2,$3,$4,$5,0*
20,1,$1+$1,$4,$5,$6,$7,0*
20,1,$1+$1,$6,$7,$8,$9,0*
20,1,$1+$1,$8,$9,$2,$3,0*%
G04 Aperture macros list end*
%ADD10C,1.600000*%
%ADD11C,1.400000*%
%ADD12O,1.400000X1.400000*%
%ADD13R,1.500000X1.500000*%
%ADD14C,1.500000*%
%ADD15C,2.000000*%
%ADD16R,1.800000X1.800000*%
%ADD17C,1.800000*%
%ADD18O,4.200000X3.200000*%
%ADD19RoundRect,0.500000X1.000000X-0.500000X1.000000X0.500000X-1.000000X0.500000X-1.000000X-0.500000X0*%
%ADD20O,1.800000X1.800000*%
%ADD21C,4.000000*%
%ADD22C,2.340000*%
%ADD23R,1.600000X1.600000*%
G04 APERTURE END LIST*
D10*
%TO.C,C2*%
X65532000Y-77390000D03*
X65532000Y-72390000D03*
%TD*%
D11*
%TO.C,R1*%
X82245200Y-68580000D03*
D12*
X82245200Y-76200000D03*
%TD*%
D10*
%TO.C,C1*%
X72390000Y-86320000D03*
X72390000Y-81320000D03*
%TD*%
D13*
%TO.C,Q4*%
X97028000Y-88900000D03*
D14*
X94488000Y-91440000D03*
X91948000Y-88900000D03*
%TD*%
D15*
%TO.C,J4*%
X101092000Y-95504000D03*
%TD*%
%TO.C,J1*%
X105918000Y-100330000D03*
%TD*%
%TO.C,J2*%
X67310000Y-101346000D03*
%TD*%
%TO.C,J3*%
X101092000Y-91440000D03*
%TD*%
D10*
%TO.C,C7*%
X72684000Y-90424000D03*
X77684000Y-90424000D03*
%TD*%
D16*
%TO.C,D2*%
X88392000Y-101600000D03*
D17*
X85852000Y-101600000D03*
%TD*%
D13*
%TO.C,Q1*%
X74668000Y-71882000D03*
D14*
X77208000Y-74422000D03*
X74668000Y-76962000D03*
%TD*%
D18*
%TO.C,SW1*%
X82025200Y-108382400D03*
X87325200Y-108382400D03*
X92625200Y-108382400D03*
X82025200Y-113182400D03*
X87325200Y-113182400D03*
X92625200Y-113182400D03*
X82025200Y-117982400D03*
X87325200Y-117982400D03*
X92625200Y-117982400D03*
%TD*%
D11*
%TO.C,R17*%
X99060000Y-113284000D03*
D12*
X99060000Y-105664000D03*
%TD*%
D11*
%TO.C,R8*%
X73660000Y-93218000D03*
D12*
X73660000Y-100838000D03*
%TD*%
D16*
%TO.C,RVTone1*%
X99404800Y-64399000D03*
D17*
X101904800Y-64399000D03*
X104404800Y-64399000D03*
D19*
X106654800Y-56899000D03*
X97154800Y-56899000D03*
%TD*%
D16*
%TO.C,RVWeight1*%
X84825200Y-64399000D03*
D17*
X87325200Y-64399000D03*
X89825200Y-64399000D03*
D19*
X82575200Y-56899000D03*
X92075200Y-56899000D03*
%TD*%
D11*
%TO.C,R12*%
X101904800Y-75844400D03*
D12*
X101904800Y-68224400D03*
%TD*%
D10*
%TO.C,C8*%
X84836000Y-95504000D03*
X89836000Y-95504000D03*
%TD*%
D11*
%TO.C,R16*%
X95250000Y-77724000D03*
D12*
X95250000Y-85344000D03*
%TD*%
D11*
%TO.C,R10*%
X81940400Y-86817200D03*
D12*
X81940400Y-79197200D03*
%TD*%
D11*
%TO.C,R13*%
X105206800Y-68122800D03*
D12*
X105206800Y-75742800D03*
%TD*%
D10*
%TO.C,C4*%
X71120000Y-100036000D03*
X71120000Y-95036000D03*
%TD*%
%TO.C,C3*%
X68580000Y-72470000D03*
X68580000Y-77470000D03*
%TD*%
D16*
%TO.C,RVVol1*%
X99354000Y-49413000D03*
D17*
X101854000Y-49413000D03*
X104354000Y-49413000D03*
D19*
X106604000Y-41913000D03*
X97104000Y-41913000D03*
%TD*%
D11*
%TO.C,R11*%
X80010000Y-68580000D03*
D12*
X80010000Y-76200000D03*
%TD*%
D11*
%TO.C,R3*%
X75438000Y-66802000D03*
D12*
X67818000Y-66802000D03*
%TD*%
D10*
%TO.C,C5*%
X87325200Y-68660000D03*
X87325200Y-73660000D03*
%TD*%
%TO.C,C10*%
X96520000Y-68620000D03*
X96520000Y-73620000D03*
%TD*%
D13*
%TO.C,Q2*%
X76954000Y-81889600D03*
D14*
X79494000Y-84429600D03*
X76954000Y-86969600D03*
%TD*%
D11*
%TO.C,R15*%
X84429600Y-86817200D03*
D12*
X84429600Y-79197200D03*
%TD*%
D16*
%TO.C,RVSpeed1*%
X70347200Y-64399000D03*
D17*
X72847200Y-64399000D03*
X75347200Y-64399000D03*
D19*
X77597200Y-56899000D03*
X68097200Y-56899000D03*
%TD*%
D13*
%TO.C,Q3*%
X81889600Y-91702000D03*
D14*
X84429600Y-89162000D03*
X86969600Y-91702000D03*
%TD*%
D16*
%TO.C,D1*%
X87376000Y-86918800D03*
D20*
X87376000Y-79298800D03*
%TD*%
D21*
%TO.C,RV1*%
X87285200Y-42896800D03*
D22*
X84785200Y-37896800D03*
X87285200Y-47896800D03*
X89785200Y-37896800D03*
%TD*%
D11*
%TO.C,R4*%
X71374000Y-77470000D03*
D12*
X71374000Y-69850000D03*
%TD*%
D23*
%TO.C,C9*%
X96520000Y-95504000D03*
D10*
X94020000Y-95504000D03*
%TD*%
D11*
%TO.C,R7*%
X68580000Y-88900000D03*
D12*
X68580000Y-81280000D03*
%TD*%
D23*
%TO.C,C6*%
X78232000Y-98044000D03*
D10*
X78232000Y-95544000D03*
%TD*%
D11*
%TO.C,R6*%
X71120000Y-111506000D03*
D12*
X71120000Y-103886000D03*
%TD*%
D16*
%TO.C,RVAccent1*%
X70398000Y-49667000D03*
D17*
X72898000Y-49667000D03*
X75398000Y-49667000D03*
D19*
X68148000Y-42167000D03*
X77648000Y-42167000D03*
%TD*%
D11*
%TO.C,R5*%
X84683600Y-76250800D03*
D12*
X84683600Y-68630800D03*
%TD*%
D11*
%TO.C,R9*%
X90220800Y-68478400D03*
D12*
X90220800Y-76098400D03*
%TD*%
D11*
%TO.C,R2*%
X65532000Y-88900000D03*
D12*
X65532000Y-81280000D03*
%TD*%
D11*
%TO.C,R14*%
X82296000Y-98044000D03*
D12*
X89916000Y-98044000D03*
%TD*%
M02*
