%TF.GenerationSoftware,KiCad,Pcbnew,(6.0.5)*%
%TF.CreationDate,2023-03-15T03:11:22-03:00*%
%TF.ProjectId,Weslie,5765736c-6965-42e6-9b69-6361645f7063,rev?*%
%TF.SameCoordinates,Original*%
%TF.FileFunction,Legend,Top*%
%TF.FilePolarity,Positive*%
%FSLAX46Y46*%
G04 Gerber Fmt 4.6, Leading zero omitted, Abs format (unit mm)*
G04 Created by KiCad (PCBNEW (6.0.5)) date 2023-03-15 03:11:22*
%MOMM*%
%LPD*%
G01*
G04 APERTURE LIST*
%ADD10C,0.300000*%
%ADD11C,0.150000*%
%ADD12C,0.120000*%
G04 APERTURE END LIST*
D10*
X102981428Y-92118571D02*
X103267142Y-92118571D01*
X103410000Y-92047142D01*
X103481428Y-91975714D01*
X103624285Y-91761428D01*
X103695714Y-91475714D01*
X103695714Y-90904285D01*
X103624285Y-90761428D01*
X103552857Y-90690000D01*
X103410000Y-90618571D01*
X103124285Y-90618571D01*
X102981428Y-90690000D01*
X102910000Y-90761428D01*
X102838571Y-90904285D01*
X102838571Y-91261428D01*
X102910000Y-91404285D01*
X102981428Y-91475714D01*
X103124285Y-91547142D01*
X103410000Y-91547142D01*
X103552857Y-91475714D01*
X103624285Y-91404285D01*
X103695714Y-91261428D01*
X104124285Y-90618571D02*
X104624285Y-92118571D01*
X105124285Y-90618571D01*
X106481428Y-91975714D02*
X106410000Y-92047142D01*
X106195714Y-92118571D01*
X106052857Y-92118571D01*
X105838571Y-92047142D01*
X105695714Y-91904285D01*
X105624285Y-91761428D01*
X105552857Y-91475714D01*
X105552857Y-91261428D01*
X105624285Y-90975714D01*
X105695714Y-90832857D01*
X105838571Y-90690000D01*
X106052857Y-90618571D01*
X106195714Y-90618571D01*
X106410000Y-90690000D01*
X106481428Y-90761428D01*
X107981428Y-91975714D02*
X107910000Y-92047142D01*
X107695714Y-92118571D01*
X107552857Y-92118571D01*
X107338571Y-92047142D01*
X107195714Y-91904285D01*
X107124285Y-91761428D01*
X107052857Y-91475714D01*
X107052857Y-91261428D01*
X107124285Y-90975714D01*
X107195714Y-90832857D01*
X107338571Y-90690000D01*
X107552857Y-90618571D01*
X107695714Y-90618571D01*
X107910000Y-90690000D01*
X107981428Y-90761428D01*
X64540000Y-104588571D02*
X64825714Y-104588571D01*
X64968571Y-104660000D01*
X65111428Y-104802857D01*
X65182857Y-105088571D01*
X65182857Y-105588571D01*
X65111428Y-105874285D01*
X64968571Y-106017142D01*
X64825714Y-106088571D01*
X64540000Y-106088571D01*
X64397142Y-106017142D01*
X64254285Y-105874285D01*
X64182857Y-105588571D01*
X64182857Y-105088571D01*
X64254285Y-104802857D01*
X64397142Y-104660000D01*
X64540000Y-104588571D01*
X65825714Y-104588571D02*
X65825714Y-105802857D01*
X65897142Y-105945714D01*
X65968571Y-106017142D01*
X66111428Y-106088571D01*
X66397142Y-106088571D01*
X66540000Y-106017142D01*
X66611428Y-105945714D01*
X66682857Y-105802857D01*
X66682857Y-104588571D01*
X67182857Y-104588571D02*
X68040000Y-104588571D01*
X67611428Y-106088571D02*
X67611428Y-104588571D01*
X105894285Y-98468571D02*
X105894285Y-96968571D01*
X106608571Y-98468571D02*
X106608571Y-96968571D01*
X107465714Y-98468571D01*
X107465714Y-96968571D01*
D11*
%TO.C,C2*%
X63389142Y-75056666D02*
X63436761Y-75104285D01*
X63484380Y-75247142D01*
X63484380Y-75342380D01*
X63436761Y-75485238D01*
X63341523Y-75580476D01*
X63246285Y-75628095D01*
X63055809Y-75675714D01*
X62912952Y-75675714D01*
X62722476Y-75628095D01*
X62627238Y-75580476D01*
X62532000Y-75485238D01*
X62484380Y-75342380D01*
X62484380Y-75247142D01*
X62532000Y-75104285D01*
X62579619Y-75056666D01*
X62579619Y-74675714D02*
X62532000Y-74628095D01*
X62484380Y-74532857D01*
X62484380Y-74294761D01*
X62532000Y-74199523D01*
X62579619Y-74151904D01*
X62674857Y-74104285D01*
X62770095Y-74104285D01*
X62912952Y-74151904D01*
X63484380Y-74723333D01*
X63484380Y-74104285D01*
%TO.C,R1*%
X84617580Y-72556666D02*
X84141390Y-72890000D01*
X84617580Y-73128095D02*
X83617580Y-73128095D01*
X83617580Y-72747142D01*
X83665200Y-72651904D01*
X83712819Y-72604285D01*
X83808057Y-72556666D01*
X83950914Y-72556666D01*
X84046152Y-72604285D01*
X84093771Y-72651904D01*
X84141390Y-72747142D01*
X84141390Y-73128095D01*
X84617580Y-71604285D02*
X84617580Y-72175714D01*
X84617580Y-71890000D02*
X83617580Y-71890000D01*
X83760438Y-71985238D01*
X83855676Y-72080476D01*
X83903295Y-72175714D01*
%TO.C,C1*%
X70247142Y-84280666D02*
X70294761Y-84328285D01*
X70342380Y-84471142D01*
X70342380Y-84566380D01*
X70294761Y-84709238D01*
X70199523Y-84804476D01*
X70104285Y-84852095D01*
X69913809Y-84899714D01*
X69770952Y-84899714D01*
X69580476Y-84852095D01*
X69485238Y-84804476D01*
X69390000Y-84709238D01*
X69342380Y-84566380D01*
X69342380Y-84471142D01*
X69390000Y-84328285D01*
X69437619Y-84280666D01*
X70342380Y-83328285D02*
X70342380Y-83899714D01*
X70342380Y-83614000D02*
X69342380Y-83614000D01*
X69485238Y-83709238D01*
X69580476Y-83804476D01*
X69628095Y-83899714D01*
%TO.C,Q4*%
X94382761Y-93637619D02*
X94287523Y-93590000D01*
X94192285Y-93494761D01*
X94049428Y-93351904D01*
X93954190Y-93304285D01*
X93858952Y-93304285D01*
X93906571Y-93542380D02*
X93811333Y-93494761D01*
X93716095Y-93399523D01*
X93668476Y-93209047D01*
X93668476Y-92875714D01*
X93716095Y-92685238D01*
X93811333Y-92590000D01*
X93906571Y-92542380D01*
X94097047Y-92542380D01*
X94192285Y-92590000D01*
X94287523Y-92685238D01*
X94335142Y-92875714D01*
X94335142Y-93209047D01*
X94287523Y-93399523D01*
X94192285Y-93494761D01*
X94097047Y-93542380D01*
X93906571Y-93542380D01*
X95192285Y-92875714D02*
X95192285Y-93542380D01*
X94954190Y-92494761D02*
X94716095Y-93209047D01*
X95335142Y-93209047D01*
%TO.C,J4*%
X100758666Y-97206380D02*
X100758666Y-97920666D01*
X100711047Y-98063523D01*
X100615809Y-98158761D01*
X100472952Y-98206380D01*
X100377714Y-98206380D01*
X101663428Y-97539714D02*
X101663428Y-98206380D01*
X101425333Y-97158761D02*
X101187238Y-97873047D01*
X101806285Y-97873047D01*
%TO.C,J1*%
X105584666Y-102032380D02*
X105584666Y-102746666D01*
X105537047Y-102889523D01*
X105441809Y-102984761D01*
X105298952Y-103032380D01*
X105203714Y-103032380D01*
X106584666Y-103032380D02*
X106013238Y-103032380D01*
X106298952Y-103032380D02*
X106298952Y-102032380D01*
X106203714Y-102175238D01*
X106108476Y-102270476D01*
X106013238Y-102318095D01*
%TO.C,J2*%
X66976666Y-103048380D02*
X66976666Y-103762666D01*
X66929047Y-103905523D01*
X66833809Y-104000761D01*
X66690952Y-104048380D01*
X66595714Y-104048380D01*
X67405238Y-103143619D02*
X67452857Y-103096000D01*
X67548095Y-103048380D01*
X67786190Y-103048380D01*
X67881428Y-103096000D01*
X67929047Y-103143619D01*
X67976666Y-103238857D01*
X67976666Y-103334095D01*
X67929047Y-103476952D01*
X67357619Y-104048380D01*
X67976666Y-104048380D01*
%TO.C,J3*%
X100758666Y-93142380D02*
X100758666Y-93856666D01*
X100711047Y-93999523D01*
X100615809Y-94094761D01*
X100472952Y-94142380D01*
X100377714Y-94142380D01*
X101139619Y-93142380D02*
X101758666Y-93142380D01*
X101425333Y-93523333D01*
X101568190Y-93523333D01*
X101663428Y-93570952D01*
X101711047Y-93618571D01*
X101758666Y-93713809D01*
X101758666Y-93951904D01*
X101711047Y-94047142D01*
X101663428Y-94094761D01*
X101568190Y-94142380D01*
X101282476Y-94142380D01*
X101187238Y-94094761D01*
X101139619Y-94047142D01*
%TO.C,C7*%
X75017333Y-88281142D02*
X74969714Y-88328761D01*
X74826857Y-88376380D01*
X74731619Y-88376380D01*
X74588761Y-88328761D01*
X74493523Y-88233523D01*
X74445904Y-88138285D01*
X74398285Y-87947809D01*
X74398285Y-87804952D01*
X74445904Y-87614476D01*
X74493523Y-87519238D01*
X74588761Y-87424000D01*
X74731619Y-87376380D01*
X74826857Y-87376380D01*
X74969714Y-87424000D01*
X75017333Y-87471619D01*
X75350666Y-87376380D02*
X76017333Y-87376380D01*
X75588761Y-88376380D01*
%TO.C,D2*%
X86383904Y-105012380D02*
X86383904Y-104012380D01*
X86622000Y-104012380D01*
X86764857Y-104060000D01*
X86860095Y-104155238D01*
X86907714Y-104250476D01*
X86955333Y-104440952D01*
X86955333Y-104583809D01*
X86907714Y-104774285D01*
X86860095Y-104869523D01*
X86764857Y-104964761D01*
X86622000Y-105012380D01*
X86383904Y-105012380D01*
X87336285Y-104107619D02*
X87383904Y-104060000D01*
X87479142Y-104012380D01*
X87717238Y-104012380D01*
X87812476Y-104060000D01*
X87860095Y-104107619D01*
X87907714Y-104202857D01*
X87907714Y-104298095D01*
X87860095Y-104440952D01*
X87288666Y-105012380D01*
X87907714Y-105012380D01*
%TO.C,Q1*%
X79405619Y-74527238D02*
X79358000Y-74622476D01*
X79262761Y-74717714D01*
X79119904Y-74860571D01*
X79072285Y-74955809D01*
X79072285Y-75051047D01*
X79310380Y-75003428D02*
X79262761Y-75098666D01*
X79167523Y-75193904D01*
X78977047Y-75241523D01*
X78643714Y-75241523D01*
X78453238Y-75193904D01*
X78358000Y-75098666D01*
X78310380Y-75003428D01*
X78310380Y-74812952D01*
X78358000Y-74717714D01*
X78453238Y-74622476D01*
X78643714Y-74574857D01*
X78977047Y-74574857D01*
X79167523Y-74622476D01*
X79262761Y-74717714D01*
X79310380Y-74812952D01*
X79310380Y-75003428D01*
X79310380Y-73622476D02*
X79310380Y-74193904D01*
X79310380Y-73908190D02*
X78310380Y-73908190D01*
X78453238Y-74003428D01*
X78548476Y-74098666D01*
X78596095Y-74193904D01*
%TO.C,SW1*%
X85991866Y-121987161D02*
X86134723Y-122034780D01*
X86372819Y-122034780D01*
X86468057Y-121987161D01*
X86515676Y-121939542D01*
X86563295Y-121844304D01*
X86563295Y-121749066D01*
X86515676Y-121653828D01*
X86468057Y-121606209D01*
X86372819Y-121558590D01*
X86182342Y-121510971D01*
X86087104Y-121463352D01*
X86039485Y-121415733D01*
X85991866Y-121320495D01*
X85991866Y-121225257D01*
X86039485Y-121130019D01*
X86087104Y-121082400D01*
X86182342Y-121034780D01*
X86420438Y-121034780D01*
X86563295Y-121082400D01*
X86896628Y-121034780D02*
X87134723Y-122034780D01*
X87325200Y-121320495D01*
X87515676Y-122034780D01*
X87753771Y-121034780D01*
X88658533Y-122034780D02*
X88087104Y-122034780D01*
X88372819Y-122034780D02*
X88372819Y-121034780D01*
X88277580Y-121177638D01*
X88182342Y-121272876D01*
X88087104Y-121320495D01*
%TO.C,R17*%
X97592380Y-110116857D02*
X97116190Y-110450190D01*
X97592380Y-110688285D02*
X96592380Y-110688285D01*
X96592380Y-110307333D01*
X96640000Y-110212095D01*
X96687619Y-110164476D01*
X96782857Y-110116857D01*
X96925714Y-110116857D01*
X97020952Y-110164476D01*
X97068571Y-110212095D01*
X97116190Y-110307333D01*
X97116190Y-110688285D01*
X97592380Y-109164476D02*
X97592380Y-109735904D01*
X97592380Y-109450190D02*
X96592380Y-109450190D01*
X96735238Y-109545428D01*
X96830476Y-109640666D01*
X96878095Y-109735904D01*
X96592380Y-108831142D02*
X96592380Y-108164476D01*
X97592380Y-108593047D01*
%TO.C,R8*%
X76032380Y-97194666D02*
X75556190Y-97528000D01*
X76032380Y-97766095D02*
X75032380Y-97766095D01*
X75032380Y-97385142D01*
X75080000Y-97289904D01*
X75127619Y-97242285D01*
X75222857Y-97194666D01*
X75365714Y-97194666D01*
X75460952Y-97242285D01*
X75508571Y-97289904D01*
X75556190Y-97385142D01*
X75556190Y-97766095D01*
X75460952Y-96623238D02*
X75413333Y-96718476D01*
X75365714Y-96766095D01*
X75270476Y-96813714D01*
X75222857Y-96813714D01*
X75127619Y-96766095D01*
X75080000Y-96718476D01*
X75032380Y-96623238D01*
X75032380Y-96432761D01*
X75080000Y-96337523D01*
X75127619Y-96289904D01*
X75222857Y-96242285D01*
X75270476Y-96242285D01*
X75365714Y-96289904D01*
X75413333Y-96337523D01*
X75460952Y-96432761D01*
X75460952Y-96623238D01*
X75508571Y-96718476D01*
X75556190Y-96766095D01*
X75651428Y-96813714D01*
X75841904Y-96813714D01*
X75937142Y-96766095D01*
X75984761Y-96718476D01*
X76032380Y-96623238D01*
X76032380Y-96432761D01*
X75984761Y-96337523D01*
X75937142Y-96289904D01*
X75841904Y-96242285D01*
X75651428Y-96242285D01*
X75556190Y-96289904D01*
X75508571Y-96337523D01*
X75460952Y-96432761D01*
%TO.C,RVTone1*%
X99493676Y-51353980D02*
X99160342Y-50877790D01*
X98922247Y-51353980D02*
X98922247Y-50353980D01*
X99303200Y-50353980D01*
X99398438Y-50401600D01*
X99446057Y-50449219D01*
X99493676Y-50544457D01*
X99493676Y-50687314D01*
X99446057Y-50782552D01*
X99398438Y-50830171D01*
X99303200Y-50877790D01*
X98922247Y-50877790D01*
X99779390Y-50353980D02*
X100112723Y-51353980D01*
X100446057Y-50353980D01*
X100636533Y-50353980D02*
X101207961Y-50353980D01*
X100922247Y-51353980D02*
X100922247Y-50353980D01*
X101684152Y-51353980D02*
X101588914Y-51306361D01*
X101541295Y-51258742D01*
X101493676Y-51163504D01*
X101493676Y-50877790D01*
X101541295Y-50782552D01*
X101588914Y-50734933D01*
X101684152Y-50687314D01*
X101827009Y-50687314D01*
X101922247Y-50734933D01*
X101969866Y-50782552D01*
X102017485Y-50877790D01*
X102017485Y-51163504D01*
X101969866Y-51258742D01*
X101922247Y-51306361D01*
X101827009Y-51353980D01*
X101684152Y-51353980D01*
X102446057Y-50687314D02*
X102446057Y-51353980D01*
X102446057Y-50782552D02*
X102493676Y-50734933D01*
X102588914Y-50687314D01*
X102731771Y-50687314D01*
X102827009Y-50734933D01*
X102874628Y-50830171D01*
X102874628Y-51353980D01*
X103731771Y-51306361D02*
X103636533Y-51353980D01*
X103446057Y-51353980D01*
X103350819Y-51306361D01*
X103303200Y-51211123D01*
X103303200Y-50830171D01*
X103350819Y-50734933D01*
X103446057Y-50687314D01*
X103636533Y-50687314D01*
X103731771Y-50734933D01*
X103779390Y-50830171D01*
X103779390Y-50925409D01*
X103303200Y-51020647D01*
X104731771Y-51353980D02*
X104160342Y-51353980D01*
X104446057Y-51353980D02*
X104446057Y-50353980D01*
X104350819Y-50496838D01*
X104255580Y-50592076D01*
X104160342Y-50639695D01*
%TO.C,RVWeight1*%
X83894990Y-51353980D02*
X83561657Y-50877790D01*
X83323561Y-51353980D02*
X83323561Y-50353980D01*
X83704514Y-50353980D01*
X83799752Y-50401600D01*
X83847371Y-50449219D01*
X83894990Y-50544457D01*
X83894990Y-50687314D01*
X83847371Y-50782552D01*
X83799752Y-50830171D01*
X83704514Y-50877790D01*
X83323561Y-50877790D01*
X84180704Y-50353980D02*
X84514038Y-51353980D01*
X84847371Y-50353980D01*
X85085466Y-50353980D02*
X85323561Y-51353980D01*
X85514038Y-50639695D01*
X85704514Y-51353980D01*
X85942609Y-50353980D01*
X86704514Y-51306361D02*
X86609276Y-51353980D01*
X86418800Y-51353980D01*
X86323561Y-51306361D01*
X86275942Y-51211123D01*
X86275942Y-50830171D01*
X86323561Y-50734933D01*
X86418800Y-50687314D01*
X86609276Y-50687314D01*
X86704514Y-50734933D01*
X86752133Y-50830171D01*
X86752133Y-50925409D01*
X86275942Y-51020647D01*
X87180704Y-51353980D02*
X87180704Y-50687314D01*
X87180704Y-50353980D02*
X87133085Y-50401600D01*
X87180704Y-50449219D01*
X87228323Y-50401600D01*
X87180704Y-50353980D01*
X87180704Y-50449219D01*
X88085466Y-50687314D02*
X88085466Y-51496838D01*
X88037847Y-51592076D01*
X87990228Y-51639695D01*
X87894990Y-51687314D01*
X87752133Y-51687314D01*
X87656895Y-51639695D01*
X88085466Y-51306361D02*
X87990228Y-51353980D01*
X87799752Y-51353980D01*
X87704514Y-51306361D01*
X87656895Y-51258742D01*
X87609276Y-51163504D01*
X87609276Y-50877790D01*
X87656895Y-50782552D01*
X87704514Y-50734933D01*
X87799752Y-50687314D01*
X87990228Y-50687314D01*
X88085466Y-50734933D01*
X88561657Y-51353980D02*
X88561657Y-50353980D01*
X88990228Y-51353980D02*
X88990228Y-50830171D01*
X88942609Y-50734933D01*
X88847371Y-50687314D01*
X88704514Y-50687314D01*
X88609276Y-50734933D01*
X88561657Y-50782552D01*
X89323561Y-50687314D02*
X89704514Y-50687314D01*
X89466419Y-50353980D02*
X89466419Y-51211123D01*
X89514038Y-51306361D01*
X89609276Y-51353980D01*
X89704514Y-51353980D01*
X90561657Y-51353980D02*
X89990228Y-51353980D01*
X90275942Y-51353980D02*
X90275942Y-50353980D01*
X90180704Y-50496838D01*
X90085466Y-50592076D01*
X89990228Y-50639695D01*
%TO.C,R12*%
X100437180Y-72677257D02*
X99960990Y-73010590D01*
X100437180Y-73248685D02*
X99437180Y-73248685D01*
X99437180Y-72867733D01*
X99484800Y-72772495D01*
X99532419Y-72724876D01*
X99627657Y-72677257D01*
X99770514Y-72677257D01*
X99865752Y-72724876D01*
X99913371Y-72772495D01*
X99960990Y-72867733D01*
X99960990Y-73248685D01*
X100437180Y-71724876D02*
X100437180Y-72296304D01*
X100437180Y-72010590D02*
X99437180Y-72010590D01*
X99580038Y-72105828D01*
X99675276Y-72201066D01*
X99722895Y-72296304D01*
X99532419Y-71343923D02*
X99484800Y-71296304D01*
X99437180Y-71201066D01*
X99437180Y-70962971D01*
X99484800Y-70867733D01*
X99532419Y-70820114D01*
X99627657Y-70772495D01*
X99722895Y-70772495D01*
X99865752Y-70820114D01*
X100437180Y-71391542D01*
X100437180Y-70772495D01*
%TO.C,C8*%
X87169333Y-93361142D02*
X87121714Y-93408761D01*
X86978857Y-93456380D01*
X86883619Y-93456380D01*
X86740761Y-93408761D01*
X86645523Y-93313523D01*
X86597904Y-93218285D01*
X86550285Y-93027809D01*
X86550285Y-92884952D01*
X86597904Y-92694476D01*
X86645523Y-92599238D01*
X86740761Y-92504000D01*
X86883619Y-92456380D01*
X86978857Y-92456380D01*
X87121714Y-92504000D01*
X87169333Y-92551619D01*
X87740761Y-92884952D02*
X87645523Y-92837333D01*
X87597904Y-92789714D01*
X87550285Y-92694476D01*
X87550285Y-92646857D01*
X87597904Y-92551619D01*
X87645523Y-92504000D01*
X87740761Y-92456380D01*
X87931238Y-92456380D01*
X88026476Y-92504000D01*
X88074095Y-92551619D01*
X88121714Y-92646857D01*
X88121714Y-92694476D01*
X88074095Y-92789714D01*
X88026476Y-92837333D01*
X87931238Y-92884952D01*
X87740761Y-92884952D01*
X87645523Y-92932571D01*
X87597904Y-92980190D01*
X87550285Y-93075428D01*
X87550285Y-93265904D01*
X87597904Y-93361142D01*
X87645523Y-93408761D01*
X87740761Y-93456380D01*
X87931238Y-93456380D01*
X88026476Y-93408761D01*
X88074095Y-93361142D01*
X88121714Y-93265904D01*
X88121714Y-93075428D01*
X88074095Y-92980190D01*
X88026476Y-92932571D01*
X87931238Y-92884952D01*
%TO.C,R16*%
X97622380Y-82176857D02*
X97146190Y-82510190D01*
X97622380Y-82748285D02*
X96622380Y-82748285D01*
X96622380Y-82367333D01*
X96670000Y-82272095D01*
X96717619Y-82224476D01*
X96812857Y-82176857D01*
X96955714Y-82176857D01*
X97050952Y-82224476D01*
X97098571Y-82272095D01*
X97146190Y-82367333D01*
X97146190Y-82748285D01*
X97622380Y-81224476D02*
X97622380Y-81795904D01*
X97622380Y-81510190D02*
X96622380Y-81510190D01*
X96765238Y-81605428D01*
X96860476Y-81700666D01*
X96908095Y-81795904D01*
X96622380Y-80367333D02*
X96622380Y-80557809D01*
X96670000Y-80653047D01*
X96717619Y-80700666D01*
X96860476Y-80795904D01*
X97050952Y-80843523D01*
X97431904Y-80843523D01*
X97527142Y-80795904D01*
X97574761Y-80748285D01*
X97622380Y-80653047D01*
X97622380Y-80462571D01*
X97574761Y-80367333D01*
X97527142Y-80319714D01*
X97431904Y-80272095D01*
X97193809Y-80272095D01*
X97098571Y-80319714D01*
X97050952Y-80367333D01*
X97003333Y-80462571D01*
X97003333Y-80653047D01*
X97050952Y-80748285D01*
X97098571Y-80795904D01*
X97193809Y-80843523D01*
%TO.C,R10*%
X80472780Y-83650057D02*
X79996590Y-83983390D01*
X80472780Y-84221485D02*
X79472780Y-84221485D01*
X79472780Y-83840533D01*
X79520400Y-83745295D01*
X79568019Y-83697676D01*
X79663257Y-83650057D01*
X79806114Y-83650057D01*
X79901352Y-83697676D01*
X79948971Y-83745295D01*
X79996590Y-83840533D01*
X79996590Y-84221485D01*
X80472780Y-82697676D02*
X80472780Y-83269104D01*
X80472780Y-82983390D02*
X79472780Y-82983390D01*
X79615638Y-83078628D01*
X79710876Y-83173866D01*
X79758495Y-83269104D01*
X79472780Y-82078628D02*
X79472780Y-81983390D01*
X79520400Y-81888152D01*
X79568019Y-81840533D01*
X79663257Y-81792914D01*
X79853733Y-81745295D01*
X80091828Y-81745295D01*
X80282304Y-81792914D01*
X80377542Y-81840533D01*
X80425161Y-81888152D01*
X80472780Y-81983390D01*
X80472780Y-82078628D01*
X80425161Y-82173866D01*
X80377542Y-82221485D01*
X80282304Y-82269104D01*
X80091828Y-82316723D01*
X79853733Y-82316723D01*
X79663257Y-82269104D01*
X79568019Y-82221485D01*
X79520400Y-82173866D01*
X79472780Y-82078628D01*
%TO.C,R13*%
X107579180Y-72575657D02*
X107102990Y-72908990D01*
X107579180Y-73147085D02*
X106579180Y-73147085D01*
X106579180Y-72766133D01*
X106626800Y-72670895D01*
X106674419Y-72623276D01*
X106769657Y-72575657D01*
X106912514Y-72575657D01*
X107007752Y-72623276D01*
X107055371Y-72670895D01*
X107102990Y-72766133D01*
X107102990Y-73147085D01*
X107579180Y-71623276D02*
X107579180Y-72194704D01*
X107579180Y-71908990D02*
X106579180Y-71908990D01*
X106722038Y-72004228D01*
X106817276Y-72099466D01*
X106864895Y-72194704D01*
X106579180Y-71289942D02*
X106579180Y-70670895D01*
X106960133Y-71004228D01*
X106960133Y-70861371D01*
X107007752Y-70766133D01*
X107055371Y-70718514D01*
X107150609Y-70670895D01*
X107388704Y-70670895D01*
X107483942Y-70718514D01*
X107531561Y-70766133D01*
X107579180Y-70861371D01*
X107579180Y-71147085D01*
X107531561Y-71242323D01*
X107483942Y-71289942D01*
%TO.C,C4*%
X68977142Y-97702666D02*
X69024761Y-97750285D01*
X69072380Y-97893142D01*
X69072380Y-97988380D01*
X69024761Y-98131238D01*
X68929523Y-98226476D01*
X68834285Y-98274095D01*
X68643809Y-98321714D01*
X68500952Y-98321714D01*
X68310476Y-98274095D01*
X68215238Y-98226476D01*
X68120000Y-98131238D01*
X68072380Y-97988380D01*
X68072380Y-97893142D01*
X68120000Y-97750285D01*
X68167619Y-97702666D01*
X68405714Y-96845523D02*
X69072380Y-96845523D01*
X68024761Y-97083619D02*
X68739047Y-97321714D01*
X68739047Y-96702666D01*
%TO.C,C3*%
X71437142Y-75136666D02*
X71484761Y-75184285D01*
X71532380Y-75327142D01*
X71532380Y-75422380D01*
X71484761Y-75565238D01*
X71389523Y-75660476D01*
X71294285Y-75708095D01*
X71103809Y-75755714D01*
X70960952Y-75755714D01*
X70770476Y-75708095D01*
X70675238Y-75660476D01*
X70580000Y-75565238D01*
X70532380Y-75422380D01*
X70532380Y-75327142D01*
X70580000Y-75184285D01*
X70627619Y-75136666D01*
X70532380Y-74803333D02*
X70532380Y-74184285D01*
X70913333Y-74517619D01*
X70913333Y-74374761D01*
X70960952Y-74279523D01*
X71008571Y-74231904D01*
X71103809Y-74184285D01*
X71341904Y-74184285D01*
X71437142Y-74231904D01*
X71484761Y-74279523D01*
X71532380Y-74374761D01*
X71532380Y-74660476D01*
X71484761Y-74755714D01*
X71437142Y-74803333D01*
%TO.C,RVVol1*%
X97499504Y-36523380D02*
X97166171Y-36047190D01*
X96928076Y-36523380D02*
X96928076Y-35523380D01*
X97309028Y-35523380D01*
X97404266Y-35571000D01*
X97451885Y-35618619D01*
X97499504Y-35713857D01*
X97499504Y-35856714D01*
X97451885Y-35951952D01*
X97404266Y-35999571D01*
X97309028Y-36047190D01*
X96928076Y-36047190D01*
X97785219Y-35523380D02*
X98118552Y-36523380D01*
X98451885Y-35523380D01*
X98642361Y-35523380D02*
X98975695Y-36523380D01*
X99309028Y-35523380D01*
X99785219Y-36523380D02*
X99689980Y-36475761D01*
X99642361Y-36428142D01*
X99594742Y-36332904D01*
X99594742Y-36047190D01*
X99642361Y-35951952D01*
X99689980Y-35904333D01*
X99785219Y-35856714D01*
X99928076Y-35856714D01*
X100023314Y-35904333D01*
X100070933Y-35951952D01*
X100118552Y-36047190D01*
X100118552Y-36332904D01*
X100070933Y-36428142D01*
X100023314Y-36475761D01*
X99928076Y-36523380D01*
X99785219Y-36523380D01*
X100689980Y-36523380D02*
X100594742Y-36475761D01*
X100547123Y-36380523D01*
X100547123Y-35523380D01*
X101594742Y-36523380D02*
X101023314Y-36523380D01*
X101309028Y-36523380D02*
X101309028Y-35523380D01*
X101213790Y-35666238D01*
X101118552Y-35761476D01*
X101023314Y-35809095D01*
%TO.C,R11*%
X82382380Y-73032857D02*
X81906190Y-73366190D01*
X82382380Y-73604285D02*
X81382380Y-73604285D01*
X81382380Y-73223333D01*
X81430000Y-73128095D01*
X81477619Y-73080476D01*
X81572857Y-73032857D01*
X81715714Y-73032857D01*
X81810952Y-73080476D01*
X81858571Y-73128095D01*
X81906190Y-73223333D01*
X81906190Y-73604285D01*
X82382380Y-72080476D02*
X82382380Y-72651904D01*
X82382380Y-72366190D02*
X81382380Y-72366190D01*
X81525238Y-72461428D01*
X81620476Y-72556666D01*
X81668095Y-72651904D01*
X82382380Y-71128095D02*
X82382380Y-71699523D01*
X82382380Y-71413809D02*
X81382380Y-71413809D01*
X81525238Y-71509047D01*
X81620476Y-71604285D01*
X81668095Y-71699523D01*
%TO.C,R3*%
X71461333Y-69174380D02*
X71128000Y-68698190D01*
X70889904Y-69174380D02*
X70889904Y-68174380D01*
X71270857Y-68174380D01*
X71366095Y-68222000D01*
X71413714Y-68269619D01*
X71461333Y-68364857D01*
X71461333Y-68507714D01*
X71413714Y-68602952D01*
X71366095Y-68650571D01*
X71270857Y-68698190D01*
X70889904Y-68698190D01*
X71794666Y-68174380D02*
X72413714Y-68174380D01*
X72080380Y-68555333D01*
X72223238Y-68555333D01*
X72318476Y-68602952D01*
X72366095Y-68650571D01*
X72413714Y-68745809D01*
X72413714Y-68983904D01*
X72366095Y-69079142D01*
X72318476Y-69126761D01*
X72223238Y-69174380D01*
X71937523Y-69174380D01*
X71842285Y-69126761D01*
X71794666Y-69079142D01*
%TO.C,C5*%
X90182342Y-71326666D02*
X90229961Y-71374285D01*
X90277580Y-71517142D01*
X90277580Y-71612380D01*
X90229961Y-71755238D01*
X90134723Y-71850476D01*
X90039485Y-71898095D01*
X89849009Y-71945714D01*
X89706152Y-71945714D01*
X89515676Y-71898095D01*
X89420438Y-71850476D01*
X89325200Y-71755238D01*
X89277580Y-71612380D01*
X89277580Y-71517142D01*
X89325200Y-71374285D01*
X89372819Y-71326666D01*
X89277580Y-70421904D02*
X89277580Y-70898095D01*
X89753771Y-70945714D01*
X89706152Y-70898095D01*
X89658533Y-70802857D01*
X89658533Y-70564761D01*
X89706152Y-70469523D01*
X89753771Y-70421904D01*
X89849009Y-70374285D01*
X90087104Y-70374285D01*
X90182342Y-70421904D01*
X90229961Y-70469523D01*
X90277580Y-70564761D01*
X90277580Y-70802857D01*
X90229961Y-70898095D01*
X90182342Y-70945714D01*
%TO.C,C10*%
X99377142Y-71762857D02*
X99424761Y-71810476D01*
X99472380Y-71953333D01*
X99472380Y-72048571D01*
X99424761Y-72191428D01*
X99329523Y-72286666D01*
X99234285Y-72334285D01*
X99043809Y-72381904D01*
X98900952Y-72381904D01*
X98710476Y-72334285D01*
X98615238Y-72286666D01*
X98520000Y-72191428D01*
X98472380Y-72048571D01*
X98472380Y-71953333D01*
X98520000Y-71810476D01*
X98567619Y-71762857D01*
X99472380Y-70810476D02*
X99472380Y-71381904D01*
X99472380Y-71096190D02*
X98472380Y-71096190D01*
X98615238Y-71191428D01*
X98710476Y-71286666D01*
X98758095Y-71381904D01*
X98472380Y-70191428D02*
X98472380Y-70096190D01*
X98520000Y-70000952D01*
X98567619Y-69953333D01*
X98662857Y-69905714D01*
X98853333Y-69858095D01*
X99091428Y-69858095D01*
X99281904Y-69905714D01*
X99377142Y-69953333D01*
X99424761Y-70000952D01*
X99472380Y-70096190D01*
X99472380Y-70191428D01*
X99424761Y-70286666D01*
X99377142Y-70334285D01*
X99281904Y-70381904D01*
X99091428Y-70429523D01*
X98853333Y-70429523D01*
X98662857Y-70381904D01*
X98567619Y-70334285D01*
X98520000Y-70286666D01*
X98472380Y-70191428D01*
%TO.C,Q2*%
X81691619Y-84534838D02*
X81644000Y-84630076D01*
X81548761Y-84725314D01*
X81405904Y-84868171D01*
X81358285Y-84963409D01*
X81358285Y-85058647D01*
X81596380Y-85011028D02*
X81548761Y-85106266D01*
X81453523Y-85201504D01*
X81263047Y-85249123D01*
X80929714Y-85249123D01*
X80739238Y-85201504D01*
X80644000Y-85106266D01*
X80596380Y-85011028D01*
X80596380Y-84820552D01*
X80644000Y-84725314D01*
X80739238Y-84630076D01*
X80929714Y-84582457D01*
X81263047Y-84582457D01*
X81453523Y-84630076D01*
X81548761Y-84725314D01*
X81596380Y-84820552D01*
X81596380Y-85011028D01*
X80691619Y-84201504D02*
X80644000Y-84153885D01*
X80596380Y-84058647D01*
X80596380Y-83820552D01*
X80644000Y-83725314D01*
X80691619Y-83677695D01*
X80786857Y-83630076D01*
X80882095Y-83630076D01*
X81024952Y-83677695D01*
X81596380Y-84249123D01*
X81596380Y-83630076D01*
%TO.C,R15*%
X82961980Y-83650057D02*
X82485790Y-83983390D01*
X82961980Y-84221485D02*
X81961980Y-84221485D01*
X81961980Y-83840533D01*
X82009600Y-83745295D01*
X82057219Y-83697676D01*
X82152457Y-83650057D01*
X82295314Y-83650057D01*
X82390552Y-83697676D01*
X82438171Y-83745295D01*
X82485790Y-83840533D01*
X82485790Y-84221485D01*
X82961980Y-82697676D02*
X82961980Y-83269104D01*
X82961980Y-82983390D02*
X81961980Y-82983390D01*
X82104838Y-83078628D01*
X82200076Y-83173866D01*
X82247695Y-83269104D01*
X81961980Y-81792914D02*
X81961980Y-82269104D01*
X82438171Y-82316723D01*
X82390552Y-82269104D01*
X82342933Y-82173866D01*
X82342933Y-81935771D01*
X82390552Y-81840533D01*
X82438171Y-81792914D01*
X82533409Y-81745295D01*
X82771504Y-81745295D01*
X82866742Y-81792914D01*
X82914361Y-81840533D01*
X82961980Y-81935771D01*
X82961980Y-82173866D01*
X82914361Y-82269104D01*
X82866742Y-82316723D01*
%TO.C,RVSpeed1*%
X69861466Y-51404780D02*
X69528133Y-50928590D01*
X69290038Y-51404780D02*
X69290038Y-50404780D01*
X69670990Y-50404780D01*
X69766228Y-50452400D01*
X69813847Y-50500019D01*
X69861466Y-50595257D01*
X69861466Y-50738114D01*
X69813847Y-50833352D01*
X69766228Y-50880971D01*
X69670990Y-50928590D01*
X69290038Y-50928590D01*
X70147180Y-50404780D02*
X70480514Y-51404780D01*
X70813847Y-50404780D01*
X71099561Y-51357161D02*
X71242419Y-51404780D01*
X71480514Y-51404780D01*
X71575752Y-51357161D01*
X71623371Y-51309542D01*
X71670990Y-51214304D01*
X71670990Y-51119066D01*
X71623371Y-51023828D01*
X71575752Y-50976209D01*
X71480514Y-50928590D01*
X71290038Y-50880971D01*
X71194800Y-50833352D01*
X71147180Y-50785733D01*
X71099561Y-50690495D01*
X71099561Y-50595257D01*
X71147180Y-50500019D01*
X71194800Y-50452400D01*
X71290038Y-50404780D01*
X71528133Y-50404780D01*
X71670990Y-50452400D01*
X72099561Y-50738114D02*
X72099561Y-51738114D01*
X72099561Y-50785733D02*
X72194800Y-50738114D01*
X72385276Y-50738114D01*
X72480514Y-50785733D01*
X72528133Y-50833352D01*
X72575752Y-50928590D01*
X72575752Y-51214304D01*
X72528133Y-51309542D01*
X72480514Y-51357161D01*
X72385276Y-51404780D01*
X72194800Y-51404780D01*
X72099561Y-51357161D01*
X73385276Y-51357161D02*
X73290038Y-51404780D01*
X73099561Y-51404780D01*
X73004323Y-51357161D01*
X72956704Y-51261923D01*
X72956704Y-50880971D01*
X73004323Y-50785733D01*
X73099561Y-50738114D01*
X73290038Y-50738114D01*
X73385276Y-50785733D01*
X73432895Y-50880971D01*
X73432895Y-50976209D01*
X72956704Y-51071447D01*
X74242419Y-51357161D02*
X74147180Y-51404780D01*
X73956704Y-51404780D01*
X73861466Y-51357161D01*
X73813847Y-51261923D01*
X73813847Y-50880971D01*
X73861466Y-50785733D01*
X73956704Y-50738114D01*
X74147180Y-50738114D01*
X74242419Y-50785733D01*
X74290038Y-50880971D01*
X74290038Y-50976209D01*
X73813847Y-51071447D01*
X75147180Y-51404780D02*
X75147180Y-50404780D01*
X75147180Y-51357161D02*
X75051942Y-51404780D01*
X74861466Y-51404780D01*
X74766228Y-51357161D01*
X74718609Y-51309542D01*
X74670990Y-51214304D01*
X74670990Y-50928590D01*
X74718609Y-50833352D01*
X74766228Y-50785733D01*
X74861466Y-50738114D01*
X75051942Y-50738114D01*
X75147180Y-50785733D01*
X76147180Y-51404780D02*
X75575752Y-51404780D01*
X75861466Y-51404780D02*
X75861466Y-50404780D01*
X75766228Y-50547638D01*
X75670990Y-50642876D01*
X75575752Y-50690495D01*
%TO.C,Q3*%
X84344361Y-88059619D02*
X84249123Y-88012000D01*
X84153885Y-87916761D01*
X84011028Y-87773904D01*
X83915790Y-87726285D01*
X83820552Y-87726285D01*
X83868171Y-87964380D02*
X83772933Y-87916761D01*
X83677695Y-87821523D01*
X83630076Y-87631047D01*
X83630076Y-87297714D01*
X83677695Y-87107238D01*
X83772933Y-87012000D01*
X83868171Y-86964380D01*
X84058647Y-86964380D01*
X84153885Y-87012000D01*
X84249123Y-87107238D01*
X84296742Y-87297714D01*
X84296742Y-87631047D01*
X84249123Y-87821523D01*
X84153885Y-87916761D01*
X84058647Y-87964380D01*
X83868171Y-87964380D01*
X84630076Y-86964380D02*
X85249123Y-86964380D01*
X84915790Y-87345333D01*
X85058647Y-87345333D01*
X85153885Y-87392952D01*
X85201504Y-87440571D01*
X85249123Y-87535809D01*
X85249123Y-87773904D01*
X85201504Y-87869142D01*
X85153885Y-87916761D01*
X85058647Y-87964380D01*
X84772933Y-87964380D01*
X84677695Y-87916761D01*
X84630076Y-87869142D01*
%TO.C,D1*%
X85358380Y-83846895D02*
X84358380Y-83846895D01*
X84358380Y-83608800D01*
X84406000Y-83465942D01*
X84501238Y-83370704D01*
X84596476Y-83323085D01*
X84786952Y-83275466D01*
X84929809Y-83275466D01*
X85120285Y-83323085D01*
X85215523Y-83370704D01*
X85310761Y-83465942D01*
X85358380Y-83608800D01*
X85358380Y-83846895D01*
X85358380Y-82323085D02*
X85358380Y-82894514D01*
X85358380Y-82608800D02*
X84358380Y-82608800D01*
X84501238Y-82704038D01*
X84596476Y-82799276D01*
X84644095Y-82894514D01*
X85928380Y-87180704D02*
X84928380Y-87180704D01*
X85928380Y-86609276D02*
X85356952Y-87037847D01*
X84928380Y-86609276D02*
X85499809Y-87180704D01*
%TO.C,RV1*%
X92758580Y-46315238D02*
X92282390Y-46648571D01*
X92758580Y-46886666D02*
X91758580Y-46886666D01*
X91758580Y-46505714D01*
X91806200Y-46410476D01*
X91853819Y-46362857D01*
X91949057Y-46315238D01*
X92091914Y-46315238D01*
X92187152Y-46362857D01*
X92234771Y-46410476D01*
X92282390Y-46505714D01*
X92282390Y-46886666D01*
X91758580Y-46029523D02*
X92758580Y-45696190D01*
X91758580Y-45362857D01*
X92758580Y-44505714D02*
X92758580Y-45077142D01*
X92758580Y-44791428D02*
X91758580Y-44791428D01*
X91901438Y-44886666D01*
X91996676Y-44981904D01*
X92044295Y-45077142D01*
%TO.C,R4*%
X69906380Y-73826666D02*
X69430190Y-74160000D01*
X69906380Y-74398095D02*
X68906380Y-74398095D01*
X68906380Y-74017142D01*
X68954000Y-73921904D01*
X69001619Y-73874285D01*
X69096857Y-73826666D01*
X69239714Y-73826666D01*
X69334952Y-73874285D01*
X69382571Y-73921904D01*
X69430190Y-74017142D01*
X69430190Y-74398095D01*
X69239714Y-72969523D02*
X69906380Y-72969523D01*
X68858761Y-73207619D02*
X69573047Y-73445714D01*
X69573047Y-72826666D01*
%TO.C,C9*%
X95103333Y-99611142D02*
X95055714Y-99658761D01*
X94912857Y-99706380D01*
X94817619Y-99706380D01*
X94674761Y-99658761D01*
X94579523Y-99563523D01*
X94531904Y-99468285D01*
X94484285Y-99277809D01*
X94484285Y-99134952D01*
X94531904Y-98944476D01*
X94579523Y-98849238D01*
X94674761Y-98754000D01*
X94817619Y-98706380D01*
X94912857Y-98706380D01*
X95055714Y-98754000D01*
X95103333Y-98801619D01*
X95579523Y-99706380D02*
X95770000Y-99706380D01*
X95865238Y-99658761D01*
X95912857Y-99611142D01*
X96008095Y-99468285D01*
X96055714Y-99277809D01*
X96055714Y-98896857D01*
X96008095Y-98801619D01*
X95960476Y-98754000D01*
X95865238Y-98706380D01*
X95674761Y-98706380D01*
X95579523Y-98754000D01*
X95531904Y-98801619D01*
X95484285Y-98896857D01*
X95484285Y-99134952D01*
X95531904Y-99230190D01*
X95579523Y-99277809D01*
X95674761Y-99325428D01*
X95865238Y-99325428D01*
X95960476Y-99277809D01*
X96008095Y-99230190D01*
X96055714Y-99134952D01*
%TO.C,R7*%
X67112380Y-85256666D02*
X66636190Y-85590000D01*
X67112380Y-85828095D02*
X66112380Y-85828095D01*
X66112380Y-85447142D01*
X66160000Y-85351904D01*
X66207619Y-85304285D01*
X66302857Y-85256666D01*
X66445714Y-85256666D01*
X66540952Y-85304285D01*
X66588571Y-85351904D01*
X66636190Y-85447142D01*
X66636190Y-85828095D01*
X66112380Y-84923333D02*
X66112380Y-84256666D01*
X67112380Y-84685238D01*
%TO.C,C6*%
X74839142Y-96960666D02*
X74886761Y-97008285D01*
X74934380Y-97151142D01*
X74934380Y-97246380D01*
X74886761Y-97389238D01*
X74791523Y-97484476D01*
X74696285Y-97532095D01*
X74505809Y-97579714D01*
X74362952Y-97579714D01*
X74172476Y-97532095D01*
X74077238Y-97484476D01*
X73982000Y-97389238D01*
X73934380Y-97246380D01*
X73934380Y-97151142D01*
X73982000Y-97008285D01*
X74029619Y-96960666D01*
X73934380Y-96103523D02*
X73934380Y-96294000D01*
X73982000Y-96389238D01*
X74029619Y-96436857D01*
X74172476Y-96532095D01*
X74362952Y-96579714D01*
X74743904Y-96579714D01*
X74839142Y-96532095D01*
X74886761Y-96484476D01*
X74934380Y-96389238D01*
X74934380Y-96198761D01*
X74886761Y-96103523D01*
X74839142Y-96055904D01*
X74743904Y-96008285D01*
X74505809Y-96008285D01*
X74410571Y-96055904D01*
X74362952Y-96103523D01*
X74315333Y-96198761D01*
X74315333Y-96389238D01*
X74362952Y-96484476D01*
X74410571Y-96532095D01*
X74505809Y-96579714D01*
%TO.C,R6*%
X69652380Y-107862666D02*
X69176190Y-108196000D01*
X69652380Y-108434095D02*
X68652380Y-108434095D01*
X68652380Y-108053142D01*
X68700000Y-107957904D01*
X68747619Y-107910285D01*
X68842857Y-107862666D01*
X68985714Y-107862666D01*
X69080952Y-107910285D01*
X69128571Y-107957904D01*
X69176190Y-108053142D01*
X69176190Y-108434095D01*
X68652380Y-107005523D02*
X68652380Y-107196000D01*
X68700000Y-107291238D01*
X68747619Y-107338857D01*
X68890476Y-107434095D01*
X69080952Y-107481714D01*
X69461904Y-107481714D01*
X69557142Y-107434095D01*
X69604761Y-107386476D01*
X69652380Y-107291238D01*
X69652380Y-107100761D01*
X69604761Y-107005523D01*
X69557142Y-106957904D01*
X69461904Y-106910285D01*
X69223809Y-106910285D01*
X69128571Y-106957904D01*
X69080952Y-107005523D01*
X69033333Y-107100761D01*
X69033333Y-107291238D01*
X69080952Y-107386476D01*
X69128571Y-107434095D01*
X69223809Y-107481714D01*
%TO.C,RVAccent1*%
X69850380Y-36621980D02*
X69517047Y-36145790D01*
X69278952Y-36621980D02*
X69278952Y-35621980D01*
X69659904Y-35621980D01*
X69755142Y-35669600D01*
X69802761Y-35717219D01*
X69850380Y-35812457D01*
X69850380Y-35955314D01*
X69802761Y-36050552D01*
X69755142Y-36098171D01*
X69659904Y-36145790D01*
X69278952Y-36145790D01*
X70136095Y-35621980D02*
X70469428Y-36621980D01*
X70802761Y-35621980D01*
X71088476Y-36336266D02*
X71564666Y-36336266D01*
X70993238Y-36621980D02*
X71326571Y-35621980D01*
X71659904Y-36621980D01*
X72421809Y-36574361D02*
X72326571Y-36621980D01*
X72136095Y-36621980D01*
X72040857Y-36574361D01*
X71993238Y-36526742D01*
X71945619Y-36431504D01*
X71945619Y-36145790D01*
X71993238Y-36050552D01*
X72040857Y-36002933D01*
X72136095Y-35955314D01*
X72326571Y-35955314D01*
X72421809Y-36002933D01*
X73278952Y-36574361D02*
X73183714Y-36621980D01*
X72993238Y-36621980D01*
X72898000Y-36574361D01*
X72850380Y-36526742D01*
X72802761Y-36431504D01*
X72802761Y-36145790D01*
X72850380Y-36050552D01*
X72898000Y-36002933D01*
X72993238Y-35955314D01*
X73183714Y-35955314D01*
X73278952Y-36002933D01*
X74088476Y-36574361D02*
X73993238Y-36621980D01*
X73802761Y-36621980D01*
X73707523Y-36574361D01*
X73659904Y-36479123D01*
X73659904Y-36098171D01*
X73707523Y-36002933D01*
X73802761Y-35955314D01*
X73993238Y-35955314D01*
X74088476Y-36002933D01*
X74136095Y-36098171D01*
X74136095Y-36193409D01*
X73659904Y-36288647D01*
X74564666Y-35955314D02*
X74564666Y-36621980D01*
X74564666Y-36050552D02*
X74612285Y-36002933D01*
X74707523Y-35955314D01*
X74850380Y-35955314D01*
X74945619Y-36002933D01*
X74993238Y-36098171D01*
X74993238Y-36621980D01*
X75326571Y-35955314D02*
X75707523Y-35955314D01*
X75469428Y-35621980D02*
X75469428Y-36479123D01*
X75517047Y-36574361D01*
X75612285Y-36621980D01*
X75707523Y-36621980D01*
X76564666Y-36621980D02*
X75993238Y-36621980D01*
X76278952Y-36621980D02*
X76278952Y-35621980D01*
X76183714Y-35764838D01*
X76088476Y-35860076D01*
X75993238Y-35907695D01*
%TO.C,R5*%
X83215980Y-72607466D02*
X82739790Y-72940800D01*
X83215980Y-73178895D02*
X82215980Y-73178895D01*
X82215980Y-72797942D01*
X82263600Y-72702704D01*
X82311219Y-72655085D01*
X82406457Y-72607466D01*
X82549314Y-72607466D01*
X82644552Y-72655085D01*
X82692171Y-72702704D01*
X82739790Y-72797942D01*
X82739790Y-73178895D01*
X82215980Y-71702704D02*
X82215980Y-72178895D01*
X82692171Y-72226514D01*
X82644552Y-72178895D01*
X82596933Y-72083657D01*
X82596933Y-71845561D01*
X82644552Y-71750323D01*
X82692171Y-71702704D01*
X82787409Y-71655085D01*
X83025504Y-71655085D01*
X83120742Y-71702704D01*
X83168361Y-71750323D01*
X83215980Y-71845561D01*
X83215980Y-72083657D01*
X83168361Y-72178895D01*
X83120742Y-72226514D01*
%TO.C,R9*%
X92593180Y-72455066D02*
X92116990Y-72788400D01*
X92593180Y-73026495D02*
X91593180Y-73026495D01*
X91593180Y-72645542D01*
X91640800Y-72550304D01*
X91688419Y-72502685D01*
X91783657Y-72455066D01*
X91926514Y-72455066D01*
X92021752Y-72502685D01*
X92069371Y-72550304D01*
X92116990Y-72645542D01*
X92116990Y-73026495D01*
X92593180Y-71978876D02*
X92593180Y-71788400D01*
X92545561Y-71693161D01*
X92497942Y-71645542D01*
X92355085Y-71550304D01*
X92164609Y-71502685D01*
X91783657Y-71502685D01*
X91688419Y-71550304D01*
X91640800Y-71597923D01*
X91593180Y-71693161D01*
X91593180Y-71883638D01*
X91640800Y-71978876D01*
X91688419Y-72026495D01*
X91783657Y-72074114D01*
X92021752Y-72074114D01*
X92116990Y-72026495D01*
X92164609Y-71978876D01*
X92212228Y-71883638D01*
X92212228Y-71693161D01*
X92164609Y-71597923D01*
X92116990Y-71550304D01*
X92021752Y-71502685D01*
%TO.C,R2*%
X64064380Y-85256666D02*
X63588190Y-85590000D01*
X64064380Y-85828095D02*
X63064380Y-85828095D01*
X63064380Y-85447142D01*
X63112000Y-85351904D01*
X63159619Y-85304285D01*
X63254857Y-85256666D01*
X63397714Y-85256666D01*
X63492952Y-85304285D01*
X63540571Y-85351904D01*
X63588190Y-85447142D01*
X63588190Y-85828095D01*
X63159619Y-84875714D02*
X63112000Y-84828095D01*
X63064380Y-84732857D01*
X63064380Y-84494761D01*
X63112000Y-84399523D01*
X63159619Y-84351904D01*
X63254857Y-84304285D01*
X63350095Y-84304285D01*
X63492952Y-84351904D01*
X64064380Y-84923333D01*
X64064380Y-84304285D01*
%TO.C,R14*%
X85463142Y-96576380D02*
X85129809Y-96100190D01*
X84891714Y-96576380D02*
X84891714Y-95576380D01*
X85272666Y-95576380D01*
X85367904Y-95624000D01*
X85415523Y-95671619D01*
X85463142Y-95766857D01*
X85463142Y-95909714D01*
X85415523Y-96004952D01*
X85367904Y-96052571D01*
X85272666Y-96100190D01*
X84891714Y-96100190D01*
X86415523Y-96576380D02*
X85844095Y-96576380D01*
X86129809Y-96576380D02*
X86129809Y-95576380D01*
X86034571Y-95719238D01*
X85939333Y-95814476D01*
X85844095Y-95862095D01*
X87272666Y-95909714D02*
X87272666Y-96576380D01*
X87034571Y-95528761D02*
X86796476Y-96243047D01*
X87415523Y-96243047D01*
D12*
%TO.C,C2*%
X66902000Y-80010000D02*
X66902000Y-69770000D01*
X64162000Y-80010000D02*
X66902000Y-80010000D01*
X64162000Y-69770000D02*
X66902000Y-69770000D01*
X64162000Y-80010000D02*
X64162000Y-69770000D01*
%TO.C,R1*%
X82245200Y-75260000D02*
X82245200Y-74310000D01*
X83165200Y-74310000D02*
X83165200Y-70470000D01*
X81325200Y-70470000D02*
X81325200Y-74310000D01*
X81325200Y-74310000D02*
X83165200Y-74310000D01*
X82245200Y-69520000D02*
X82245200Y-70470000D01*
X83165200Y-70470000D02*
X81325200Y-70470000D01*
%TO.C,C1*%
X71020000Y-78700000D02*
X73760000Y-78700000D01*
X73760000Y-88940000D02*
X73760000Y-78700000D01*
X71020000Y-88940000D02*
X71020000Y-78700000D01*
X71020000Y-88940000D02*
X73760000Y-88940000D01*
%TO.C,Q4*%
X96288000Y-87050000D02*
X92688000Y-87050000D01*
X96812184Y-87777205D02*
G75*
G03*
X96288000Y-87050000I-2324184J-1122795D01*
G01*
X92132543Y-89998371D02*
G75*
G03*
X93378000Y-91250000I2355457J1098371D01*
G01*
X95628000Y-91250000D02*
G75*
G03*
X96855199Y-90003842I-1140000J2350000D01*
G01*
X92688000Y-87050000D02*
G75*
G03*
X92163816Y-87777205I1800000J-1850000D01*
G01*
%TO.C,J4*%
X102343000Y-95504000D02*
G75*
G03*
X102343000Y-95504000I-1251000J0D01*
G01*
%TO.C,J1*%
X107169000Y-100330000D02*
G75*
G03*
X107169000Y-100330000I-1251000J0D01*
G01*
%TO.C,J2*%
X68561000Y-101346000D02*
G75*
G03*
X68561000Y-101346000I-1251000J0D01*
G01*
%TO.C,J3*%
X102343000Y-91440000D02*
G75*
G03*
X102343000Y-91440000I-1251000J0D01*
G01*
%TO.C,C7*%
X80304000Y-89054000D02*
X80304000Y-91794000D01*
X70064000Y-89054000D02*
X80304000Y-89054000D01*
X70064000Y-91794000D02*
X80304000Y-91794000D01*
X70064000Y-89054000D02*
X70064000Y-91794000D01*
%TO.C,D2*%
X88682000Y-102836000D02*
X88682000Y-102680000D01*
X88682000Y-100520000D02*
X88682000Y-100364000D01*
X86080870Y-102679837D02*
G75*
G03*
X88162961Y-102680000I1041130J1079837D01*
G01*
X88682000Y-100364484D02*
G75*
G03*
X85449665Y-100521392I-1560000J-1235516D01*
G01*
X88162961Y-100520000D02*
G75*
G03*
X86080870Y-100520163I-1040961J-1080000D01*
G01*
X85449665Y-102678608D02*
G75*
G03*
X88682000Y-102835516I1672335J1078608D01*
G01*
%TO.C,Q1*%
X72818000Y-72622000D02*
X72818000Y-76222000D01*
X73545205Y-72097816D02*
G75*
G03*
X72818000Y-72622000I1122795J-2324184D01*
G01*
X75766371Y-76777457D02*
G75*
G03*
X77018000Y-75532000I-1098371J2355457D01*
G01*
X77018000Y-73282000D02*
G75*
G03*
X75771842Y-72054801I-2350000J-1140000D01*
G01*
X72818000Y-76222000D02*
G75*
G03*
X73545205Y-76746184I1850000J1800000D01*
G01*
%TO.C,SW1*%
X77525200Y-121982400D02*
X97125200Y-121982400D01*
X97125200Y-121982400D02*
X97125200Y-104382400D01*
X97125200Y-104382400D02*
X77525200Y-104382400D01*
X77525200Y-104382400D02*
X77525200Y-121982400D01*
%TO.C,R17*%
X99980000Y-107554000D02*
X98140000Y-107554000D01*
X98140000Y-107554000D02*
X98140000Y-111394000D01*
X99980000Y-111394000D02*
X99980000Y-107554000D01*
X99060000Y-106604000D02*
X99060000Y-107554000D01*
X98140000Y-111394000D02*
X99980000Y-111394000D01*
X99060000Y-112344000D02*
X99060000Y-111394000D01*
%TO.C,R8*%
X74580000Y-95108000D02*
X72740000Y-95108000D01*
X74580000Y-98948000D02*
X74580000Y-95108000D01*
X72740000Y-95108000D02*
X72740000Y-98948000D01*
X72740000Y-98948000D02*
X74580000Y-98948000D01*
X73660000Y-99898000D02*
X73660000Y-98948000D01*
X73660000Y-94158000D02*
X73660000Y-95108000D01*
%TO.C,RVTone1*%
X95734800Y-51929000D02*
X108074800Y-51929000D01*
X100604800Y-63519000D02*
X101034800Y-63519000D01*
X105274800Y-63519000D02*
X108074800Y-63519000D01*
X95734800Y-63519000D02*
X98204800Y-63519000D01*
X102775800Y-63519000D02*
X103534800Y-63519000D01*
X108074800Y-63519000D02*
X108074800Y-58853000D01*
X108074800Y-54944000D02*
X108074800Y-51929000D01*
X95734800Y-63519000D02*
X95734800Y-58853000D01*
X95734800Y-54944000D02*
X95734800Y-51929000D01*
X99904800Y-61899000D02*
X103904800Y-61899000D01*
X103904800Y-61899000D02*
X103904800Y-60399000D01*
X103904800Y-60399000D02*
X99904800Y-60399000D01*
X99904800Y-60399000D02*
X99904800Y-61899000D01*
X99904800Y-53399000D02*
X103904800Y-53399000D01*
X103904800Y-53399000D02*
X103904800Y-51899000D01*
X103904800Y-51899000D02*
X99904800Y-51899000D01*
X99904800Y-51899000D02*
X99904800Y-53399000D01*
%TO.C,RVWeight1*%
X81155200Y-54944000D02*
X81155200Y-51929000D01*
X90695200Y-63519000D02*
X93495200Y-63519000D01*
X93495200Y-63519000D02*
X93495200Y-58853000D01*
X86025200Y-63519000D02*
X86455200Y-63519000D01*
X81155200Y-51929000D02*
X93495200Y-51929000D01*
X81155200Y-63519000D02*
X81155200Y-58853000D01*
X81155200Y-63519000D02*
X83625200Y-63519000D01*
X93495200Y-54944000D02*
X93495200Y-51929000D01*
X88196200Y-63519000D02*
X88955200Y-63519000D01*
X85325200Y-61899000D02*
X89325200Y-61899000D01*
X89325200Y-61899000D02*
X89325200Y-60399000D01*
X89325200Y-60399000D02*
X85325200Y-60399000D01*
X85325200Y-60399000D02*
X85325200Y-61899000D01*
X85325200Y-53399000D02*
X89325200Y-53399000D01*
X89325200Y-53399000D02*
X89325200Y-51899000D01*
X89325200Y-51899000D02*
X85325200Y-51899000D01*
X85325200Y-51899000D02*
X85325200Y-53399000D01*
%TO.C,R12*%
X100984800Y-70114400D02*
X100984800Y-73954400D01*
X102824800Y-70114400D02*
X100984800Y-70114400D01*
X102824800Y-73954400D02*
X102824800Y-70114400D01*
X101904800Y-74904400D02*
X101904800Y-73954400D01*
X101904800Y-69164400D02*
X101904800Y-70114400D01*
X100984800Y-73954400D02*
X102824800Y-73954400D01*
%TO.C,C8*%
X92456000Y-94134000D02*
X92456000Y-96874000D01*
X82216000Y-94134000D02*
X92456000Y-94134000D01*
X82216000Y-94134000D02*
X82216000Y-96874000D01*
X82216000Y-96874000D02*
X92456000Y-96874000D01*
%TO.C,R16*%
X96170000Y-79614000D02*
X94330000Y-79614000D01*
X95250000Y-78664000D02*
X95250000Y-79614000D01*
X94330000Y-79614000D02*
X94330000Y-83454000D01*
X96170000Y-83454000D02*
X96170000Y-79614000D01*
X94330000Y-83454000D02*
X96170000Y-83454000D01*
X95250000Y-84404000D02*
X95250000Y-83454000D01*
%TO.C,R10*%
X81020400Y-84927200D02*
X82860400Y-84927200D01*
X81940400Y-85877200D02*
X81940400Y-84927200D01*
X82860400Y-84927200D02*
X82860400Y-81087200D01*
X81020400Y-81087200D02*
X81020400Y-84927200D01*
X81940400Y-80137200D02*
X81940400Y-81087200D01*
X82860400Y-81087200D02*
X81020400Y-81087200D01*
%TO.C,R13*%
X106126800Y-70012800D02*
X104286800Y-70012800D01*
X104286800Y-70012800D02*
X104286800Y-73852800D01*
X106126800Y-73852800D02*
X106126800Y-70012800D01*
X104286800Y-73852800D02*
X106126800Y-73852800D01*
X105206800Y-69062800D02*
X105206800Y-70012800D01*
X105206800Y-74802800D02*
X105206800Y-73852800D01*
%TO.C,C4*%
X69750000Y-102656000D02*
X72490000Y-102656000D01*
X69750000Y-92416000D02*
X72490000Y-92416000D01*
X69750000Y-102656000D02*
X69750000Y-92416000D01*
X72490000Y-102656000D02*
X72490000Y-92416000D01*
%TO.C,C3*%
X69950000Y-69850000D02*
X67210000Y-69850000D01*
X69950000Y-80090000D02*
X67210000Y-80090000D01*
X67210000Y-69850000D02*
X67210000Y-80090000D01*
X69950000Y-69850000D02*
X69950000Y-80090000D01*
%TO.C,RVVol1*%
X95684000Y-36943000D02*
X108024000Y-36943000D01*
X95684000Y-48533000D02*
X98154000Y-48533000D01*
X100554000Y-48533000D02*
X100984000Y-48533000D01*
X95684000Y-48533000D02*
X95684000Y-43867000D01*
X105224000Y-48533000D02*
X108024000Y-48533000D01*
X102725000Y-48533000D02*
X103484000Y-48533000D01*
X108024000Y-39958000D02*
X108024000Y-36943000D01*
X108024000Y-48533000D02*
X108024000Y-43867000D01*
X95684000Y-39958000D02*
X95684000Y-36943000D01*
X99854000Y-46913000D02*
X103854000Y-46913000D01*
X103854000Y-46913000D02*
X103854000Y-45413000D01*
X103854000Y-45413000D02*
X99854000Y-45413000D01*
X99854000Y-45413000D02*
X99854000Y-46913000D01*
X99854000Y-38413000D02*
X103854000Y-38413000D01*
X103854000Y-38413000D02*
X103854000Y-36913000D01*
X103854000Y-36913000D02*
X99854000Y-36913000D01*
X99854000Y-36913000D02*
X99854000Y-38413000D01*
%TO.C,R11*%
X79090000Y-74310000D02*
X80930000Y-74310000D01*
X80930000Y-74310000D02*
X80930000Y-70470000D01*
X80010000Y-69520000D02*
X80010000Y-70470000D01*
X80010000Y-75260000D02*
X80010000Y-74310000D01*
X79090000Y-70470000D02*
X79090000Y-74310000D01*
X80930000Y-70470000D02*
X79090000Y-70470000D01*
%TO.C,R3*%
X73548000Y-65882000D02*
X69708000Y-65882000D01*
X74498000Y-66802000D02*
X73548000Y-66802000D01*
X73548000Y-67722000D02*
X73548000Y-65882000D01*
X69708000Y-65882000D02*
X69708000Y-67722000D01*
X69708000Y-67722000D02*
X73548000Y-67722000D01*
X68758000Y-66802000D02*
X69708000Y-66802000D01*
%TO.C,C5*%
X88695200Y-66040000D02*
X88695200Y-76280000D01*
X88695200Y-76280000D02*
X85955200Y-76280000D01*
X88695200Y-66040000D02*
X85955200Y-66040000D01*
X85955200Y-66040000D02*
X85955200Y-76280000D01*
%TO.C,C10*%
X97890000Y-76240000D02*
X95150000Y-76240000D01*
X97890000Y-66000000D02*
X95150000Y-66000000D01*
X97890000Y-66000000D02*
X97890000Y-76240000D01*
X95150000Y-66000000D02*
X95150000Y-76240000D01*
%TO.C,Q2*%
X75104000Y-82629600D02*
X75104000Y-86229600D01*
X75104000Y-86229600D02*
G75*
G03*
X75831205Y-86753784I1850000J1800000D01*
G01*
X75831205Y-82105416D02*
G75*
G03*
X75104000Y-82629600I1122795J-2324184D01*
G01*
X78052371Y-86785057D02*
G75*
G03*
X79304000Y-85539600I-1098371J2355457D01*
G01*
X79304000Y-83289600D02*
G75*
G03*
X78057842Y-82062401I-2350000J-1140000D01*
G01*
%TO.C,R15*%
X84429600Y-85877200D02*
X84429600Y-84927200D01*
X83509600Y-84927200D02*
X85349600Y-84927200D01*
X85349600Y-81087200D02*
X83509600Y-81087200D01*
X85349600Y-84927200D02*
X85349600Y-81087200D01*
X83509600Y-81087200D02*
X83509600Y-84927200D01*
X84429600Y-80137200D02*
X84429600Y-81087200D01*
%TO.C,RVSpeed1*%
X71547200Y-63519000D02*
X71977200Y-63519000D01*
X76217200Y-63519000D02*
X79017200Y-63519000D01*
X66677200Y-54944000D02*
X66677200Y-51929000D01*
X66677200Y-63519000D02*
X66677200Y-58853000D01*
X66677200Y-51929000D02*
X79017200Y-51929000D01*
X79017200Y-54944000D02*
X79017200Y-51929000D01*
X79017200Y-63519000D02*
X79017200Y-58853000D01*
X73718200Y-63519000D02*
X74477200Y-63519000D01*
X66677200Y-63519000D02*
X69147200Y-63519000D01*
X70847200Y-61899000D02*
X74847200Y-61899000D01*
X74847200Y-61899000D02*
X74847200Y-60399000D01*
X74847200Y-60399000D02*
X70847200Y-60399000D01*
X70847200Y-60399000D02*
X70847200Y-61899000D01*
X70847200Y-53399000D02*
X74847200Y-53399000D01*
X74847200Y-53399000D02*
X74847200Y-51899000D01*
X74847200Y-51899000D02*
X70847200Y-51899000D01*
X70847200Y-51899000D02*
X70847200Y-53399000D01*
%TO.C,Q3*%
X82629600Y-93552000D02*
X86229600Y-93552000D01*
X83289600Y-89352000D02*
G75*
G03*
X82062401Y-90598158I1140000J-2350000D01*
G01*
X86229600Y-93552000D02*
G75*
G03*
X86753784Y-92824795I-1800000J1850000D01*
G01*
X86785057Y-90603629D02*
G75*
G03*
X85539600Y-89352000I-2355457J-1098371D01*
G01*
X82105416Y-92824795D02*
G75*
G03*
X82629600Y-93552000I2324184J1122795D01*
G01*
%TO.C,D1*%
X86236000Y-85828800D02*
X85906000Y-85828800D01*
X88846000Y-80388800D02*
X88516000Y-80388800D01*
X85906000Y-85828800D02*
X85906000Y-80388800D01*
X88516000Y-85828800D02*
X88846000Y-85828800D01*
X85906000Y-84928800D02*
X88846000Y-84928800D01*
X85906000Y-84808800D02*
X88846000Y-84808800D01*
X85906000Y-85048800D02*
X88846000Y-85048800D01*
X88846000Y-85828800D02*
X88846000Y-80388800D01*
X85906000Y-80388800D02*
X86236000Y-80388800D01*
%TO.C,RV1*%
X85860200Y-48016800D02*
X82265200Y-48016800D01*
X92306200Y-48016800D02*
X88710200Y-48016800D01*
X88359200Y-37776800D02*
X86210200Y-37776800D01*
X92306200Y-37776800D02*
X92306200Y-48016800D01*
X82265200Y-37776800D02*
X82265200Y-48016800D01*
X92306200Y-37776800D02*
X91211200Y-37776800D01*
X83360200Y-37776800D02*
X82265200Y-37776800D01*
%TO.C,R4*%
X72294000Y-75580000D02*
X72294000Y-71740000D01*
X71374000Y-76530000D02*
X71374000Y-75580000D01*
X70454000Y-75580000D02*
X72294000Y-75580000D01*
X71374000Y-70790000D02*
X71374000Y-71740000D01*
X72294000Y-71740000D02*
X70454000Y-71740000D01*
X70454000Y-71740000D02*
X70454000Y-75580000D01*
%TO.C,C9*%
X94710000Y-94464000D02*
X94710000Y-92984000D01*
X93029000Y-94464000D02*
X93029000Y-94185000D01*
X95270000Y-98084000D02*
X95270000Y-92924000D01*
X94750000Y-98032000D02*
X94750000Y-96544000D01*
X93229000Y-94464000D02*
X93229000Y-93899000D01*
X93869000Y-97679000D02*
X93869000Y-96544000D01*
X93989000Y-97751000D02*
X93989000Y-96544000D01*
X95030000Y-98073000D02*
X95030000Y-96544000D01*
X94509000Y-94464000D02*
X94509000Y-93036000D01*
X94469000Y-94464000D02*
X94469000Y-93049000D01*
X94149000Y-97833000D02*
X94149000Y-96544000D01*
X94509000Y-97972000D02*
X94509000Y-96544000D01*
X94269000Y-97886000D02*
X94269000Y-96544000D01*
X94429000Y-94464000D02*
X94429000Y-93062000D01*
X93749000Y-94464000D02*
X93749000Y-93409000D01*
X93669000Y-94464000D02*
X93669000Y-93469000D01*
X98074775Y-96979000D02*
X97574775Y-96979000D01*
X95190000Y-98083000D02*
X95190000Y-92925000D01*
X94590000Y-94464000D02*
X94590000Y-93013000D01*
X93109000Y-94464000D02*
X93109000Y-94061000D01*
X93269000Y-97157000D02*
X93269000Y-96544000D01*
X94269000Y-94464000D02*
X94269000Y-93122000D01*
X94630000Y-94464000D02*
X94630000Y-93003000D01*
X94189000Y-94464000D02*
X94189000Y-93156000D01*
X93029000Y-96823000D02*
X93029000Y-96544000D01*
X94549000Y-97984000D02*
X94549000Y-96544000D01*
X94309000Y-94464000D02*
X94309000Y-93106000D01*
X93349000Y-94464000D02*
X93349000Y-93761000D01*
X93189000Y-97058000D02*
X93189000Y-96544000D01*
X92989000Y-94464000D02*
X92989000Y-94253000D01*
X93069000Y-96887000D02*
X93069000Y-96544000D01*
X93229000Y-97109000D02*
X93229000Y-96544000D01*
X94870000Y-98054000D02*
X94870000Y-96544000D01*
X94750000Y-94464000D02*
X94750000Y-92976000D01*
X94950000Y-94464000D02*
X94950000Y-92943000D01*
X93829000Y-94464000D02*
X93829000Y-93355000D01*
X93709000Y-97569000D02*
X93709000Y-96544000D01*
X93909000Y-97704000D02*
X93909000Y-96544000D01*
X94790000Y-98040000D02*
X94790000Y-96544000D01*
X93509000Y-97405000D02*
X93509000Y-96544000D01*
X93589000Y-97475000D02*
X93589000Y-96544000D01*
X94469000Y-97959000D02*
X94469000Y-96544000D01*
X93549000Y-94464000D02*
X93549000Y-93567000D01*
X94349000Y-97918000D02*
X94349000Y-96544000D01*
X94910000Y-94464000D02*
X94910000Y-92948000D01*
X94229000Y-94464000D02*
X94229000Y-93139000D01*
X94429000Y-97946000D02*
X94429000Y-96544000D01*
X95230000Y-98084000D02*
X95230000Y-92924000D01*
X93309000Y-97203000D02*
X93309000Y-96544000D01*
X95070000Y-98077000D02*
X95070000Y-92931000D01*
X92989000Y-96755000D02*
X92989000Y-96544000D01*
X94349000Y-94464000D02*
X94349000Y-93090000D01*
X93549000Y-97441000D02*
X93549000Y-96544000D01*
X93269000Y-94464000D02*
X93269000Y-93851000D01*
X94950000Y-98065000D02*
X94950000Y-96544000D01*
X94830000Y-98047000D02*
X94830000Y-96544000D01*
X93429000Y-97330000D02*
X93429000Y-96544000D01*
X94830000Y-94464000D02*
X94830000Y-92961000D01*
X93389000Y-94464000D02*
X93389000Y-93719000D01*
X93629000Y-94464000D02*
X93629000Y-93500000D01*
X93669000Y-97539000D02*
X93669000Y-96544000D01*
X94549000Y-94464000D02*
X94549000Y-93024000D01*
X92709000Y-96022000D02*
X92709000Y-94986000D01*
X93429000Y-94464000D02*
X93429000Y-93678000D01*
X95150000Y-98082000D02*
X95150000Y-92926000D01*
X93469000Y-94464000D02*
X93469000Y-93640000D01*
X93749000Y-97599000D02*
X93749000Y-96544000D01*
X93989000Y-94464000D02*
X93989000Y-93257000D01*
X93109000Y-96947000D02*
X93109000Y-96544000D01*
X92749000Y-96181000D02*
X92749000Y-94827000D01*
X94309000Y-97902000D02*
X94309000Y-96544000D01*
X93149000Y-97004000D02*
X93149000Y-96544000D01*
X93949000Y-94464000D02*
X93949000Y-93280000D01*
X93789000Y-94464000D02*
X93789000Y-93382000D01*
X94870000Y-94464000D02*
X94870000Y-92954000D01*
X93149000Y-94464000D02*
X93149000Y-94004000D01*
X92669000Y-95788000D02*
X92669000Y-95220000D01*
X95110000Y-98080000D02*
X95110000Y-92928000D01*
X92949000Y-96682000D02*
X92949000Y-94326000D01*
X93589000Y-94464000D02*
X93589000Y-93533000D01*
X93949000Y-97728000D02*
X93949000Y-96544000D01*
X95030000Y-94464000D02*
X95030000Y-92935000D01*
X97824775Y-97229000D02*
X97824775Y-96729000D01*
X93629000Y-97508000D02*
X93629000Y-96544000D01*
X94990000Y-98069000D02*
X94990000Y-96544000D01*
X94109000Y-97814000D02*
X94109000Y-96544000D01*
X94069000Y-94464000D02*
X94069000Y-93214000D01*
X94189000Y-97852000D02*
X94189000Y-96544000D01*
X93709000Y-94464000D02*
X93709000Y-93439000D01*
X93869000Y-94464000D02*
X93869000Y-93329000D01*
X92829000Y-96419000D02*
X92829000Y-94589000D01*
X94670000Y-94464000D02*
X94670000Y-92993000D01*
X93829000Y-97653000D02*
X93829000Y-96544000D01*
X94069000Y-97794000D02*
X94069000Y-96544000D01*
X94029000Y-97772000D02*
X94029000Y-96544000D01*
X94229000Y-97869000D02*
X94229000Y-96544000D01*
X92869000Y-96515000D02*
X92869000Y-94493000D01*
X94710000Y-98024000D02*
X94710000Y-96544000D01*
X94389000Y-97932000D02*
X94389000Y-96544000D01*
X93909000Y-94464000D02*
X93909000Y-93304000D01*
X93469000Y-97368000D02*
X93469000Y-96544000D01*
X94670000Y-98015000D02*
X94670000Y-96544000D01*
X94389000Y-94464000D02*
X94389000Y-93076000D01*
X93349000Y-97247000D02*
X93349000Y-96544000D01*
X94910000Y-98060000D02*
X94910000Y-96544000D01*
X93069000Y-94464000D02*
X93069000Y-94121000D01*
X93189000Y-94464000D02*
X93189000Y-93950000D01*
X94630000Y-98005000D02*
X94630000Y-96544000D01*
X94790000Y-94464000D02*
X94790000Y-92968000D01*
X92789000Y-96309000D02*
X92789000Y-94699000D01*
X93789000Y-97626000D02*
X93789000Y-96544000D01*
X94029000Y-94464000D02*
X94029000Y-93236000D01*
X94590000Y-97995000D02*
X94590000Y-96544000D01*
X94149000Y-94464000D02*
X94149000Y-93175000D01*
X92909000Y-96602000D02*
X92909000Y-94406000D01*
X93509000Y-94464000D02*
X93509000Y-93603000D01*
X94109000Y-94464000D02*
X94109000Y-93194000D01*
X93389000Y-97289000D02*
X93389000Y-96544000D01*
X94990000Y-94464000D02*
X94990000Y-92939000D01*
X93309000Y-94464000D02*
X93309000Y-93805000D01*
X97890000Y-95504000D02*
G75*
G03*
X97890000Y-95504000I-2620000J0D01*
G01*
%TO.C,R7*%
X67660000Y-83170000D02*
X67660000Y-87010000D01*
X69500000Y-83170000D02*
X67660000Y-83170000D01*
X67660000Y-87010000D02*
X69500000Y-87010000D01*
X68580000Y-82220000D02*
X68580000Y-83170000D01*
X69500000Y-87010000D02*
X69500000Y-83170000D01*
X68580000Y-87960000D02*
X68580000Y-87010000D01*
%TO.C,C6*%
X75689000Y-96354000D02*
X77192000Y-96354000D01*
X75654000Y-96674000D02*
X80810000Y-96674000D01*
X79272000Y-95073000D02*
X80169000Y-95073000D01*
X76083000Y-95353000D02*
X77192000Y-95353000D01*
X75731000Y-96154000D02*
X77192000Y-96154000D01*
X79272000Y-96234000D02*
X80752000Y-96234000D01*
X79272000Y-94713000D02*
X79786000Y-94713000D01*
X79272000Y-95553000D02*
X80500000Y-95553000D01*
X79272000Y-95513000D02*
X80479000Y-95513000D01*
X75777000Y-95993000D02*
X77192000Y-95993000D01*
X79272000Y-94993000D02*
X80096000Y-94993000D01*
X79272000Y-96154000D02*
X80733000Y-96154000D01*
X76261000Y-95113000D02*
X77192000Y-95113000D01*
X79272000Y-94673000D02*
X79732000Y-94673000D01*
X75659000Y-96594000D02*
X80805000Y-96594000D01*
X79272000Y-95033000D02*
X80133000Y-95033000D01*
X75656000Y-96634000D02*
X80808000Y-96634000D01*
X76981000Y-94513000D02*
X77192000Y-94513000D01*
X75653000Y-96714000D02*
X80811000Y-96714000D01*
X75721000Y-96194000D02*
X77192000Y-96194000D01*
X79272000Y-94553000D02*
X79551000Y-94553000D01*
X76489000Y-94873000D02*
X77192000Y-94873000D01*
X79272000Y-95433000D02*
X80432000Y-95433000D01*
X79272000Y-95673000D02*
X80561000Y-95673000D01*
X79272000Y-96434000D02*
X80788000Y-96434000D01*
X79272000Y-95913000D02*
X80660000Y-95913000D01*
X77134000Y-94433000D02*
X79330000Y-94433000D01*
X79272000Y-95953000D02*
X80674000Y-95953000D01*
X76368000Y-94993000D02*
X77192000Y-94993000D01*
X75884000Y-95713000D02*
X77192000Y-95713000D01*
X79272000Y-95113000D02*
X80203000Y-95113000D01*
X76913000Y-94553000D02*
X77192000Y-94553000D01*
X77221000Y-94393000D02*
X79243000Y-94393000D01*
X75663000Y-96554000D02*
X77192000Y-96554000D01*
X75922000Y-95633000D02*
X77192000Y-95633000D01*
X79272000Y-94873000D02*
X79975000Y-94873000D01*
X79272000Y-96474000D02*
X80793000Y-96474000D01*
X79272000Y-95633000D02*
X80542000Y-95633000D01*
X75667000Y-96514000D02*
X77192000Y-96514000D01*
X75964000Y-95553000D02*
X77192000Y-95553000D01*
X79272000Y-95993000D02*
X80687000Y-95993000D01*
X76137000Y-95273000D02*
X77192000Y-95273000D01*
X76447000Y-94913000D02*
X77192000Y-94913000D01*
X79272000Y-94753000D02*
X79837000Y-94753000D01*
X79272000Y-94953000D02*
X80058000Y-94953000D01*
X79272000Y-96314000D02*
X80768000Y-96314000D01*
X75818000Y-95873000D02*
X77192000Y-95873000D01*
X75671000Y-96474000D02*
X77192000Y-96474000D01*
X77555000Y-94273000D02*
X78909000Y-94273000D01*
X76507000Y-99348775D02*
X77007000Y-99348775D01*
X79272000Y-94633000D02*
X79675000Y-94633000D01*
X75834000Y-95833000D02*
X77192000Y-95833000D01*
X76197000Y-95193000D02*
X77192000Y-95193000D01*
X79272000Y-95833000D02*
X80630000Y-95833000D01*
X75652000Y-96754000D02*
X80812000Y-96754000D01*
X75867000Y-95753000D02*
X77192000Y-95753000D01*
X77054000Y-94473000D02*
X79410000Y-94473000D01*
X76331000Y-95033000D02*
X77192000Y-95033000D01*
X76732000Y-94673000D02*
X77192000Y-94673000D01*
X76627000Y-94753000D02*
X77192000Y-94753000D01*
X76579000Y-94793000D02*
X77192000Y-94793000D01*
X79272000Y-94793000D02*
X79885000Y-94793000D01*
X75652000Y-96794000D02*
X80812000Y-96794000D01*
X79272000Y-95593000D02*
X80522000Y-95593000D01*
X79272000Y-95233000D02*
X80297000Y-95233000D01*
X75696000Y-96314000D02*
X77192000Y-96314000D01*
X79272000Y-95793000D02*
X80614000Y-95793000D01*
X79272000Y-94913000D02*
X80017000Y-94913000D01*
X76228000Y-95153000D02*
X77192000Y-95153000D01*
X79272000Y-96354000D02*
X80775000Y-96354000D01*
X79272000Y-96033000D02*
X80700000Y-96033000D01*
X75764000Y-96033000D02*
X77192000Y-96033000D01*
X79272000Y-94593000D02*
X79615000Y-94593000D01*
X79272000Y-96394000D02*
X80782000Y-96394000D01*
X76110000Y-95313000D02*
X77192000Y-95313000D01*
X79272000Y-96274000D02*
X80760000Y-96274000D01*
X75850000Y-95793000D02*
X77192000Y-95793000D01*
X79272000Y-96514000D02*
X80797000Y-96514000D01*
X76533000Y-94833000D02*
X77192000Y-94833000D01*
X77317000Y-94353000D02*
X79147000Y-94353000D01*
X79272000Y-94833000D02*
X79931000Y-94833000D01*
X79272000Y-95273000D02*
X80327000Y-95273000D01*
X76789000Y-94633000D02*
X77192000Y-94633000D01*
X75903000Y-95673000D02*
X77192000Y-95673000D01*
X79272000Y-96554000D02*
X80801000Y-96554000D01*
X76057000Y-95393000D02*
X77192000Y-95393000D01*
X75741000Y-96114000D02*
X77192000Y-96114000D01*
X75942000Y-95593000D02*
X77192000Y-95593000D01*
X79272000Y-96114000D02*
X80723000Y-96114000D01*
X75752000Y-96073000D02*
X77192000Y-96073000D01*
X75790000Y-95953000D02*
X77192000Y-95953000D01*
X75704000Y-96274000D02*
X77192000Y-96274000D01*
X76406000Y-94953000D02*
X77192000Y-94953000D01*
X79272000Y-96194000D02*
X80743000Y-96194000D01*
X79272000Y-95353000D02*
X80381000Y-95353000D01*
X77714000Y-94233000D02*
X78750000Y-94233000D01*
X76295000Y-95073000D02*
X77192000Y-95073000D01*
X75985000Y-95513000D02*
X77192000Y-95513000D01*
X77948000Y-94193000D02*
X78516000Y-94193000D01*
X76849000Y-94593000D02*
X77192000Y-94593000D01*
X79272000Y-95193000D02*
X80267000Y-95193000D01*
X76167000Y-95233000D02*
X77192000Y-95233000D01*
X76032000Y-95433000D02*
X77192000Y-95433000D01*
X79272000Y-96073000D02*
X80712000Y-96073000D01*
X79272000Y-95393000D02*
X80407000Y-95393000D01*
X76678000Y-94713000D02*
X77192000Y-94713000D01*
X79272000Y-94513000D02*
X79483000Y-94513000D01*
X75682000Y-96394000D02*
X77192000Y-96394000D01*
X75676000Y-96434000D02*
X77192000Y-96434000D01*
X75804000Y-95913000D02*
X77192000Y-95913000D01*
X79272000Y-95873000D02*
X80646000Y-95873000D01*
X79272000Y-95753000D02*
X80597000Y-95753000D01*
X79272000Y-95153000D02*
X80236000Y-95153000D01*
X76757000Y-99598775D02*
X76757000Y-99098775D01*
X79272000Y-95713000D02*
X80580000Y-95713000D01*
X79272000Y-95473000D02*
X80456000Y-95473000D01*
X79272000Y-95313000D02*
X80354000Y-95313000D01*
X75712000Y-96234000D02*
X77192000Y-96234000D01*
X77427000Y-94313000D02*
X79037000Y-94313000D01*
X76008000Y-95473000D02*
X77192000Y-95473000D01*
X80852000Y-96794000D02*
G75*
G03*
X80852000Y-96794000I-2620000J0D01*
G01*
%TO.C,R6*%
X72040000Y-105776000D02*
X70200000Y-105776000D01*
X70200000Y-105776000D02*
X70200000Y-109616000D01*
X72040000Y-109616000D02*
X72040000Y-105776000D01*
X71120000Y-104826000D02*
X71120000Y-105776000D01*
X70200000Y-109616000D02*
X72040000Y-109616000D01*
X71120000Y-110566000D02*
X71120000Y-109616000D01*
%TO.C,RVAccent1*%
X66728000Y-37197000D02*
X79068000Y-37197000D01*
X71598000Y-48787000D02*
X72028000Y-48787000D01*
X66728000Y-48787000D02*
X66728000Y-44121000D01*
X66728000Y-48787000D02*
X69198000Y-48787000D01*
X66728000Y-40212000D02*
X66728000Y-37197000D01*
X79068000Y-40212000D02*
X79068000Y-37197000D01*
X76268000Y-48787000D02*
X79068000Y-48787000D01*
X73769000Y-48787000D02*
X74528000Y-48787000D01*
X79068000Y-48787000D02*
X79068000Y-44121000D01*
X70898000Y-38667000D02*
X74898000Y-38667000D01*
X74898000Y-38667000D02*
X74898000Y-37167000D01*
X74898000Y-37167000D02*
X70898000Y-37167000D01*
X70898000Y-37167000D02*
X70898000Y-38667000D01*
X70898000Y-47167000D02*
X74898000Y-47167000D01*
X74898000Y-47167000D02*
X74898000Y-45667000D01*
X74898000Y-45667000D02*
X70898000Y-45667000D01*
X70898000Y-45667000D02*
X70898000Y-47167000D01*
%TO.C,R5*%
X83763600Y-74360800D02*
X85603600Y-74360800D01*
X83763600Y-70520800D02*
X83763600Y-74360800D01*
X85603600Y-70520800D02*
X83763600Y-70520800D01*
X85603600Y-74360800D02*
X85603600Y-70520800D01*
X84683600Y-75310800D02*
X84683600Y-74360800D01*
X84683600Y-69570800D02*
X84683600Y-70520800D01*
%TO.C,R9*%
X91140800Y-74208400D02*
X91140800Y-70368400D01*
X91140800Y-70368400D02*
X89300800Y-70368400D01*
X89300800Y-74208400D02*
X91140800Y-74208400D01*
X90220800Y-69418400D02*
X90220800Y-70368400D01*
X89300800Y-70368400D02*
X89300800Y-74208400D01*
X90220800Y-75158400D02*
X90220800Y-74208400D01*
%TO.C,R2*%
X64612000Y-87010000D02*
X66452000Y-87010000D01*
X65532000Y-82220000D02*
X65532000Y-83170000D01*
X66452000Y-83170000D02*
X64612000Y-83170000D01*
X64612000Y-83170000D02*
X64612000Y-87010000D01*
X66452000Y-87010000D02*
X66452000Y-83170000D01*
X65532000Y-87960000D02*
X65532000Y-87010000D01*
%TO.C,R14*%
X88026000Y-97124000D02*
X84186000Y-97124000D01*
X88026000Y-98964000D02*
X88026000Y-97124000D01*
X84186000Y-97124000D02*
X84186000Y-98964000D01*
X83236000Y-98044000D02*
X84186000Y-98044000D01*
X88976000Y-98044000D02*
X88026000Y-98044000D01*
X84186000Y-98964000D02*
X88026000Y-98964000D01*
%TD*%
M02*
