M48
; DRILL file {KiCad (6.0.5)} date Wed Mar 15 03:11:19 2023
; FORMAT={-:-/ absolute / inch / decimal}
; #@! TF.CreationDate,2023-03-15T03:11:19-03:00
; #@! TF.GenerationSoftware,Kicad,Pcbnew,(6.0.5)
; #@! TF.FileFunction,Plated,1,2,PTH
FMAT,2
INCH
; #@! TA.AperFunction,Plated,PTH,ViaDrill
T1C0.0157
; #@! TA.AperFunction,Plated,PTH,ComponentDrill
T2C0.0276
; #@! TA.AperFunction,Plated,PTH,ComponentDrill
T3C0.0315
; #@! TA.AperFunction,Plated,PTH,ComponentDrill
T4C0.0354
; #@! TA.AperFunction,Plated,PTH,ComponentDrill
T5C0.0394
; #@! TA.AperFunction,Plated,PTH,ComponentDrill
T6C0.0433
; #@! TA.AperFunction,Plated,PTH,ComponentDrill
T7C0.0472
; #@! TA.AperFunction,Plated,PTH,ComponentDrill
T8C0.0512
%
G90
G05
T1
X3.568Y-2.372
X3.806Y-2.37
T2
X2.58Y-3.2
X2.58Y-3.5
X2.67Y-2.63
X2.7Y-3.2
X2.7Y-3.5
X2.8Y-4.09
X2.8Y-4.39
X2.81Y-2.75
X2.81Y-3.05
X2.9Y-3.67
X2.9Y-3.97
X2.97Y-2.63
X3.15Y-2.7
X3.15Y-3.0
X3.226Y-3.118
X3.226Y-3.418
X3.238Y-2.7
X3.238Y-3.0
X3.24Y-3.86
X3.324Y-3.118
X3.324Y-3.418
X3.334Y-2.702
X3.334Y-3.002
X3.54Y-3.86
X3.552Y-2.696
X3.552Y-2.996
X3.75Y-3.06
X3.75Y-3.36
X3.9Y-4.16
X3.9Y-4.46
X4.012Y-2.686
X4.012Y-2.986
X4.142Y-2.682
X4.142Y-2.982
T3
X2.58Y-2.85
X2.58Y-3.0469
X2.7Y-2.8531
X2.7Y-3.05
X2.8Y-3.7416
X2.8Y-3.9384
X2.85Y-3.2016
X2.85Y-3.3984
X2.8616Y-3.56
X2.9397Y-2.83
X2.9397Y-3.03
X3.0297Y-3.224
X3.0297Y-3.424
X3.0397Y-2.93
X3.0584Y-3.56
X3.08Y-3.7616
X3.08Y-3.86
X3.1297Y-3.324
X3.224Y-3.6103
X3.324Y-3.5103
X3.34Y-3.76
X3.424Y-3.6103
X3.438Y-2.7031
X3.438Y-2.9
X3.5369Y-3.76
X3.62Y-3.5
X3.7016Y-3.76
X3.72Y-3.6
X3.8Y-2.7016
X3.8Y-2.8984
X3.8Y-3.76
X3.82Y-3.5
T4
X3.38Y-4.0
X3.44Y-3.122
X3.44Y-3.422
X3.48Y-4.0
T5
X2.65Y-3.99
X2.7696Y-2.5354
X2.7716Y-1.9554
X2.868Y-2.5354
X2.87Y-1.9554
X2.9664Y-2.5354
X2.9684Y-1.9554
X3.3396Y-2.5354
X3.438Y-2.5354
X3.5364Y-2.5354
X3.9116Y-1.9454
X3.9136Y-2.5354
X3.98Y-3.6
X3.98Y-3.76
X4.01Y-1.9454
X4.012Y-2.5354
X4.1084Y-1.9454
X4.1104Y-2.5354
X4.17Y-3.95
T8
X3.338Y-1.492
X3.4364Y-1.8857
X3.5349Y-1.492
T6
G00X2.6672Y-2.2401
M15
G01X2.6948Y-2.2401
M16
G05
G00X2.6692Y-1.6601
M15
G01X2.6968Y-1.6601
M16
G05
G00X3.0412Y-2.2401
M15
G01X3.0688Y-2.2401
M16
G05
G00X3.0432Y-1.6601
M15
G01X3.0708Y-1.6601
M16
G05
G00X3.2372Y-2.2401
M15
G01X3.2648Y-2.2401
M16
G05
G00X3.6112Y-2.2401
M15
G01X3.6388Y-2.2401
M16
G05
G00X3.8092Y-1.6501
M15
G01X3.8368Y-1.6501
M16
G05
G00X3.8112Y-2.2401
M15
G01X3.8388Y-2.2401
M16
G05
G00X4.1832Y-1.6501
M15
G01X4.2108Y-1.6501
M16
G05
G00X4.1852Y-2.2401
M15
G01X4.2128Y-2.2401
M16
G05
T7
G00X3.2057Y-4.267
M15
G01X3.253Y-4.267
M16
G05
G00X3.2057Y-4.456
M15
G01X3.253Y-4.456
M16
G05
G00X3.253Y-4.645
M15
G01X3.2057Y-4.645
M16
G05
G00X3.4144Y-4.267
M15
G01X3.4616Y-4.267
M16
G05
G00X3.4144Y-4.456
M15
G01X3.4616Y-4.456
M16
G05
G00X3.4144Y-4.645
M15
G01X3.4616Y-4.645
M16
G05
G00X3.623Y-4.267
M15
G01X3.6703Y-4.267
M16
G05
G00X3.623Y-4.456
M15
G01X3.6703Y-4.456
M16
G05
G00X3.623Y-4.645
M15
G01X3.6703Y-4.645
M16
G05
T0
M30
